<?xml version="1.0" encoding="UTF-8" standalone="no"?>
<!-- Created with Inkscape (http://www.inkscape.org/) -->

<svg
   width="144.68353mm"
   height="145.75528mm"
   viewBox="0 0 144.68353 145.75528"
   version="1.1"
   id="svg4585"
   xml:space="preserve"
   inkscape:version="1.2.2 (b0a8486541, 2022-12-01)"
   sodipodi:docname="SkillSwap_Text_Group_Single.svg"
   xmlns:inkscape="http://www.inkscape.org/namespaces/inkscape"
   xmlns:sodipodi="http://sodipodi.sourceforge.net/DTD/sodipodi-0.dtd"
   xmlns="http://www.w3.org/2000/svg"
   xmlns:svg="http://www.w3.org/2000/svg"><sodipodi:namedview
     id="namedview4587"
     pagecolor="#505050"
     bordercolor="#ffffff"
     borderopacity="1"
     inkscape:showpageshadow="0"
     inkscape:pageopacity="0"
     inkscape:pagecheckerboard="1"
     inkscape:deskcolor="#d1d1d1"
     inkscape:document-units="mm"
     showgrid="false"
     inkscape:zoom="0.59490668"
     inkscape:cx="305.93033"
     inkscape:cy="504.28077"
     inkscape:window-width="982"
     inkscape:window-height="1708"
     inkscape:window-x="0"
     inkscape:window-y="0"
     inkscape:window-maximized="1"
     inkscape:current-layer="layer1"
     guidecolor="#00ffe5"
     guideopacity="0"
     guidehicolor="#ff0000"
     guidehiopacity="1" /><defs
     id="defs4582" /><g
     inkscape:label="Layer 1"
     inkscape:groupmode="layer"
     id="layer1"
     transform="translate(-32.457263,-55.395118)"><path
       style="fill:#ff0101;fill-opacity:0.47693536;stroke:none"
       d="m 74.836886,142.53773 v 6.96624 h -1.25036 v -6.96624 h 1.25036"
       id="path5604" /><path
       id="path5602"
       style="fill:#ff0101;fill-opacity:0.47693536;stroke:none"
       d="m 140.80581,149.12823 c -2.21452,-0.0262 -1.42898,-3.17447 -1.42898,-4.82278 0,-0.55392 -0.21735,-1.73704 0.27938,-2.12885 0.43144,-0.3403 1.35886,-0.0135 1.86422,-0.0241 2.07015,-0.0435 5.24183,0.98947 3.50669,3.74182 -1.0149,1.60985 -2.90046,0.34241 -3.93491,1.37686 -0.43309,0.43309 -0.28634,1.30107 -0.2864,1.85706 m 0.88282,-5.9624 c -0.41293,5.9e-4 -0.82954,0.0377 -1.18907,0.0377 v 2.67942 c 0.7245,0 1.63324,0.14121 2.3182,-0.13229 1.02627,-0.40977 1.16426,-1.79261 0.17157,-2.33629 -0.36989,-0.20258 -0.83271,-0.24923 -1.3007,-0.24857 z" /><path
       id="path5600"
       style="fill:#ff0101;fill-opacity:0.47693536;stroke:none"
       d="m 132.88892,142.53776 2.85793,6.96624 c -1.67462,-0.006 -1.64143,-1.57707 -3.21532,-1.60677 -0.6171,-0.0116 -1.54625,-0.15646 -2.09425,0.18276 -1.00274,0.6207 -0.77876,1.40726 -2.19253,1.42401 l 2.18895,-5.18002 0.93872,-1.73826 1.5165,-0.048 m -1.07173,1.60761 -1.07173,2.5007 h 2.5007 l -1.07173,-2.5007 z" /><path
       style="fill:#ff0101;fill-opacity:0.47693536;stroke:none"
       d="m 115.20537,142.35914 1.6076,5.0014 h 0.35724 l 1.60759,-4.82278 h 1.42898 l 1.42897,4.82278 h 0.53587 l 1.42897,-4.82278 h 1.42897 c -0.60529,2.21758 -1.32617,6.96423 -3.92967,6.96624 l -1.42898,-4.64416 c -1.23656,1.07987 -0.88469,3.58817 -2.21816,4.46043 -0.90655,0.59301 -1.40902,-0.37575 -1.67706,-1.06675 -0.70963,-1.82945 -1.41897,-3.79421 -1.82067,-5.71576 l 1.25035,-0.17862"
       id="path5598" /><path
       style="fill:#ff0101;fill-opacity:0.47693536;stroke:none"
       d="m 109.66808,142.89501 -0.35724,1.07173 c -0.78235,-0.21347 -1.67727,-0.7201 -2.49726,-0.40259 -0.56867,0.22019 -1.01885,0.84286 -0.47908,1.34876 1.02747,0.963 2.91812,0.3525 3.53122,1.91453 1.10975,2.82736 -3.31527,3.45764 -4.99327,2.30346 -0.39368,-0.27077 -0.69604,-1.05259 0.0138,-1.13967 0.58789,-0.0721 3.77683,1.3057 3.54556,-0.44767 -0.17639,-1.33727 -2.92335,-0.9809 -3.65734,-1.99307 -2.2013,-3.03561 3.19045,-3.54824 4.89363,-2.65548"
       id="path5596" /><path
       style="fill:#ff0101;fill-opacity:0.47693536;stroke:none"
       d="m 91.091436,142.53776 c -0.14144,1.11916 -0.83625,4.99581 0.2354,5.71093 0.761172,0.50792 2.449202,0.18358 3.337024,0.18358 v 1.07173 h -5.001404 v -5.0014 l 0.18359,-1.85637 1.24539,-0.10847"
       id="path5594" /><path
       style="fill:#ff0101;fill-opacity:0.47693536;stroke:none"
       d="m 81.267276,142.35914 c 0.37918,1.28283 -0.55682,5.12251 0.59264,5.88955 0.76117,0.50792 2.44921,0.18358 3.33703,0.18358 -0.0572,1.74142 -2.0791,1.05897 -3.39381,1.07242 -0.41402,0.004 -1.29041,0.21834 -1.5956,-0.14927 -0.31606,-0.3807 -0.0134,-1.35357 -0.0134,-1.81626 0,-1.58325 0.0451,-3.44371 -0.17725,-5.0014 l 1.25036,-0.17862"
       id="path5592" /><path
       style="fill:#ff0101;fill-opacity:0.47693536;stroke:none"
       d="m 64.119596,145.75295 c 1.75913,-1.23916 2.4981,-3.2134 4.82278,-3.21519 l -2.40657,3.03657 2.58519,3.92967 c -1.86143,-0.001 -2.93854,-1.2268 -3.75105,-2.85794 -1.14308,0.81309 -1.25752,1.53276 -1.25035,2.85794 h -1.42898 l 0.17862,-7.14486 c 1.67907,0.45966 1.25036,1.91756 1.25036,3.39381"
       id="path5590" /><path
       style="fill:#ff0101;fill-opacity:0.47693536;stroke:none"
       d="m 57.689216,142.89501 -0.35725,0.8931 c -0.51409,-0.0756 -4.85659,-0.53549 -3.15496,1.1587 0.95345,0.94928 2.75126,0.35817 3.48023,1.70904 1.90262,3.52577 -3.7719,2.7365 -5.32667,2.31228 0.34496,-2.15537 3.8206,1.02771 4.12235,-1.25738 0.17351,-1.31391 -2.98258,-1.287 -3.63252,-2.1746 -2.22051,-3.03246 3.25637,-3.33489 4.86882,-2.64114"
       id="path5588" /><path
       style="fill:#ff0101;fill-opacity:0.47693536;stroke:none"
       d="m 74.836886,142.53773 v 6.96624 h -1.25036 v -6.96624 h 1.25036"
       id="path9188" /><path
       id="path9190"
       style="fill:#01ff01;fill-opacity:0.49505505;stroke:none"
       d="m 139.21848,165.6599 c -2.21452,-0.0262 -1.42898,-3.17447 -1.42898,-4.82278 0,-0.55392 -0.21735,-1.73704 0.27938,-2.12885 0.43144,-0.3403 1.35886,-0.0135 1.86422,-0.0241 2.07015,-0.0435 5.24183,0.98947 3.50669,3.74182 -1.0149,1.60985 -2.90046,0.34241 -3.93491,1.37686 -0.43309,0.43309 -0.28634,1.30107 -0.2864,1.85706 m 0.88282,-5.9624 c -0.41293,5.9e-4 -0.82954,0.0377 -1.18907,0.0377 v 2.67942 c 0.7245,0 1.63324,0.14121 2.3182,-0.13229 1.02627,-0.40977 1.16426,-1.79261 0.17157,-2.33629 -0.36989,-0.20258 -0.83271,-0.24923 -1.3007,-0.24857 z" /><path
       id="path9192"
       style="fill:#01ff01;fill-opacity:0.49505505;stroke:none"
       d="m 131.30159,159.06943 2.85793,6.96624 c -1.67462,-0.006 -1.64143,-1.57707 -3.21532,-1.60677 -0.6171,-0.0116 -1.54625,-0.15646 -2.09425,0.18276 -1.00274,0.6207 -0.77876,1.40726 -2.19253,1.42401 l 2.18895,-5.18002 0.93872,-1.73826 1.5165,-0.048 m -1.07173,1.60761 -1.07173,2.5007 h 2.5007 l -1.07173,-2.5007 z" /><path
       style="fill:#01ff01;fill-opacity:0.49505505;stroke:none"
       d="m 113.61804,158.89081 1.6076,5.0014 h 0.35724 l 1.60759,-4.82278 h 1.42898 l 1.42897,4.82278 h 0.53587 l 1.42897,-4.82278 h 1.42897 c -0.60529,2.21758 -1.32617,6.96423 -3.92967,6.96624 l -1.42898,-4.64416 c -1.23656,1.07987 -0.88469,3.58817 -2.21816,4.46043 -0.90655,0.59301 -1.40902,-0.37575 -1.67706,-1.06675 -0.70963,-1.82945 -1.41897,-3.79421 -1.82067,-5.71576 l 1.25035,-0.17862"
       id="path9194" /><path
       style="fill:#01ff01;fill-opacity:0.49505505;stroke:none"
       d="m 108.08075,159.42668 -0.35724,1.07173 c -0.78235,-0.21347 -1.67727,-0.7201 -2.49726,-0.40259 -0.56867,0.22019 -1.01885,0.84286 -0.47908,1.34876 1.02747,0.963 2.91812,0.3525 3.53122,1.91453 1.10975,2.82736 -3.31527,3.45764 -4.99327,2.30346 -0.39368,-0.27077 -0.69604,-1.05259 0.0138,-1.13967 0.58789,-0.0721 3.77683,1.3057 3.54556,-0.44767 -0.17639,-1.33727 -2.92335,-0.9809 -3.65734,-1.99307 -2.2013,-3.03561 3.19045,-3.54824 4.89363,-2.65548"
       id="path9196" /><path
       style="fill:#01ff01;fill-opacity:0.49505505;stroke:none"
       d="m 89.504105,159.06943 c -0.14144,1.11916 -0.83625,4.99581 0.2354,5.71093 0.761172,0.50792 2.449202,0.18358 3.337024,0.18358 v 1.07173 h -5.001404 v -5.0014 l 0.18359,-1.85637 1.24539,-0.10847"
       id="path9198" /><path
       style="fill:#01ff01;fill-opacity:0.49505505;stroke:none"
       d="m 79.679945,158.89081 c 0.37918,1.28283 -0.55682,5.12251 0.59264,5.88955 0.76117,0.50792 2.44921,0.18358 3.33703,0.18358 -0.0572,1.74142 -2.0791,1.05897 -3.39381,1.07242 -0.41402,0.004 -1.29041,0.21834 -1.5956,-0.14927 -0.31606,-0.3807 -0.0134,-1.35357 -0.0134,-1.81626 0,-1.58325 0.0451,-3.44371 -0.17725,-5.0014 l 1.25036,-0.17862"
       id="path9200" /><path
       style="fill:#01ff01;fill-opacity:0.49505505;stroke:none"
       d="m 62.532265,162.28462 c 1.75913,-1.23916 2.4981,-3.2134 4.82278,-3.21519 l -2.40657,3.03657 2.58519,3.92967 c -1.86143,-0.001 -2.93854,-1.2268 -3.75105,-2.85794 -1.14308,0.81309 -1.25752,1.53276 -1.25035,2.85794 h -1.42898 l 0.17862,-7.14486 c 1.67907,0.45966 1.25036,1.91756 1.25036,3.39381"
       id="path9202" /><path
       style="fill:#01ff01;fill-opacity:0.49505505;stroke:none"
       d="m 56.101885,159.42668 -0.35725,0.8931 c -0.51409,-0.0756 -4.85659,-0.53549 -3.15496,1.1587 0.95345,0.94928 2.75126,0.35817 3.48023,1.70904 1.90262,3.52577 -3.7719,2.7365 -5.32667,2.31228 0.34496,-2.15537 3.8206,1.02771 4.12235,-1.25738 0.17351,-1.31391 -2.98258,-1.287 -3.63252,-2.1746 -2.22051,-3.03246 3.25637,-3.33489 4.86882,-2.64114"
       id="path9204" /><path
       style="fill:#01ff01;fill-opacity:0.49505505;stroke:none"
       d="m 73.249555,159.0694 v 6.96624 h -1.25036 v -6.96624 h 1.25036"
       id="path9620" /><path
       id="path9622"
       style="fill:#01ff01;fill-opacity:0.49505505;stroke:none"
       d="m 139.21848,165.6599 c -2.21452,-0.0262 -1.42898,-3.17447 -1.42898,-4.82278 0,-0.55392 -0.21735,-1.73704 0.27938,-2.12885 0.43144,-0.3403 1.35886,-0.0135 1.86422,-0.0241 2.07015,-0.0435 5.24183,0.98947 3.50669,3.74182 -1.0149,1.60985 -2.90046,0.34241 -3.93491,1.37686 -0.43309,0.43309 -0.28634,1.30107 -0.2864,1.85706 m 0.88282,-5.9624 c -0.41293,5.9e-4 -0.82954,0.0377 -1.18907,0.0377 v 2.67942 c 0.7245,0 1.63324,0.14121 2.3182,-0.13229 1.02627,-0.40977 1.16426,-1.79261 0.17157,-2.33629 -0.36989,-0.20258 -0.83271,-0.24923 -1.3007,-0.24857 z" /><path
       id="path9624"
       style="fill:#01ff01;fill-opacity:0.49505505;stroke:none"
       d="m 131.30159,159.06943 2.85793,6.96624 c -1.67462,-0.006 -1.64143,-1.57707 -3.21532,-1.60677 -0.6171,-0.0116 -1.54625,-0.15646 -2.09425,0.18276 -1.00274,0.6207 -0.77876,1.40726 -2.19253,1.42401 l 2.18895,-5.18002 0.93872,-1.73826 1.5165,-0.048 m -1.07173,1.60761 -1.07173,2.5007 h 2.5007 l -1.07173,-2.5007 z" /><g
       id="g10498"><path
         style="fill:#0101ff;fill-opacity:1;stroke:none"
         d="m 113.33646,121.32827 1.6076,5.0014 h 0.35724 l 1.60759,-4.82278 h 1.42898 l 1.42897,4.82278 h 0.53587 l 1.42897,-4.82278 h 1.42897 c -0.60529,2.21758 -1.32617,6.96423 -3.92967,6.96624 l -1.42898,-4.64416 c -1.23656,1.07987 -0.88469,3.58817 -2.21816,4.46043 -0.90655,0.59301 -1.40902,-0.37575 -1.67706,-1.06675 -0.70963,-1.82945 -1.41897,-3.79421 -1.82067,-5.71576 l 1.25035,-0.17862"
         id="path9626" /><path
         style="fill:#0101ff;fill-opacity:1;stroke:none"
         d="m 107.79917,121.86414 -0.35724,1.07173 c -0.78235,-0.21347 -1.67727,-0.7201 -2.49726,-0.40259 -0.56867,0.22019 -1.01885,0.84286 -0.47908,1.34876 1.02747,0.963 2.91812,0.3525 3.53122,1.91453 1.10975,2.82736 -3.31527,3.45764 -4.99327,2.30346 -0.39368,-0.27077 -0.69604,-1.05259 0.0138,-1.13967 0.58789,-0.0721 3.77683,1.3057 3.54556,-0.44767 -0.17639,-1.33727 -2.92335,-0.9809 -3.65734,-1.99307 -2.2013,-3.03561 3.19045,-3.54824 4.89363,-2.65548"
         id="path9628" /><path
         style="fill:#0101ff;fill-opacity:1;stroke:none"
         d="m 89.222518,121.50689 c -0.14144,1.11916 -0.83625,4.99581 0.2354,5.71093 0.761172,0.50792 2.449202,0.18358 3.337024,0.18358 v 1.07173 h -5.001404 v -5.0014 l 0.18359,-1.85637 1.24539,-0.10847"
         id="path9630" /><path
         style="fill:#0101ff;fill-opacity:1;stroke:none"
         d="m 79.398358,121.32827 c 0.37918,1.28283 -0.55682,5.12251 0.59264,5.88955 0.76117,0.50792 2.44921,0.18358 3.33703,0.18358 -0.0572,1.74142 -2.0791,1.05897 -3.39381,1.07242 -0.41402,0.004 -1.29041,0.21834 -1.5956,-0.14927 -0.31606,-0.3807 -0.0134,-1.35357 -0.0134,-1.81626 0,-1.58325 0.0451,-3.44371 -0.17725,-5.0014 l 1.25036,-0.17862"
         id="path9632" /><path
         style="fill:#0101ff;fill-opacity:1;stroke:none"
         d="m 62.250678,124.72208 c 1.75913,-1.23916 2.4981,-3.2134 4.82278,-3.21519 l -2.40657,3.03657 2.58519,3.92967 c -1.86143,-0.001 -2.93854,-1.2268 -3.75105,-2.85794 -1.14308,0.81309 -1.25752,1.53276 -1.25035,2.85794 h -1.42898 l 0.17862,-7.14486 c 1.67907,0.45966 1.25036,1.91756 1.25036,3.39381"
         id="path9634" /><path
         style="fill:#0101ff;fill-opacity:1;stroke:none"
         d="m 55.820298,121.86414 -0.35725,0.8931 c -0.51409,-0.0756 -4.85659,-0.53549 -3.15496,1.1587 0.95345,0.94928 2.75126,0.35817 3.48023,1.70904 1.90262,3.52577 -3.7719,2.7365 -5.32667,2.31228 0.34496,-2.15537 3.8206,1.02771 4.12235,-1.25738 0.17351,-1.31391 -2.98258,-1.287 -3.63252,-2.1746 -2.22051,-3.03246 3.25637,-3.33489 4.86882,-2.64114"
         id="path9636" /><path
         style="fill:#0101ff;fill-opacity:1;stroke:none"
         d="m 72.967968,121.50686 v 6.96624 h -1.25036 v -6.96624 h 1.25036"
         id="path9638" /><path
         id="path9640"
         style="fill:#0101ff;fill-opacity:1;stroke:none"
         d="m 138.9369,128.09736 c -2.21452,-0.0262 -1.42898,-3.17447 -1.42898,-4.82278 0,-0.55392 -0.21735,-1.73704 0.27938,-2.12885 0.43144,-0.3403 1.35886,-0.0135 1.86422,-0.0241 2.07015,-0.0435 5.24183,0.98947 3.50669,3.74182 -1.0149,1.60985 -2.90046,0.34241 -3.93491,1.37686 -0.43309,0.43309 -0.28634,1.30107 -0.2864,1.85706 m 0.88282,-5.9624 c -0.41293,5.9e-4 -0.82954,0.0377 -1.18907,0.0377 v 2.67942 c 0.7245,0 1.63324,0.14121 2.3182,-0.13229 1.02627,-0.40977 1.16426,-1.79261 0.17157,-2.33629 -0.36989,-0.20258 -0.83271,-0.24923 -1.3007,-0.24857 z" /><path
         id="path9642"
         style="fill:#0101ff;fill-opacity:1;stroke:none"
         d="m 131.02001,121.50689 2.85793,6.96624 c -1.67462,-0.006 -1.64143,-1.57707 -3.21532,-1.60677 -0.6171,-0.0116 -1.54625,-0.15646 -2.09425,0.18276 -1.00274,0.6207 -0.77876,1.40726 -2.19253,1.42401 l 2.18895,-5.18002 0.93872,-1.73826 1.5165,-0.048 m -1.07173,1.60761 -1.07173,2.5007 h 2.5007 l -1.07173,-2.5007 z" /><path
         style="fill:#0101ff;fill-opacity:1;stroke:none"
         d="m 113.33646,121.32827 1.6076,5.0014 h 0.35724 l 1.60759,-4.82278 h 1.42898 l 1.42897,4.82278 h 0.53587 l 1.42897,-4.82278 h 1.42897 c -0.60529,2.21758 -1.32617,6.96423 -3.92967,6.96624 l -1.42898,-4.64416 c -1.23656,1.07987 -0.88469,3.58817 -2.21816,4.46043 -0.90655,0.59301 -1.40902,-0.37575 -1.67706,-1.06675 -0.70963,-1.82945 -1.41897,-3.79421 -1.82067,-5.71576 l 1.25035,-0.17862"
         id="path9644" /><path
         style="fill:#0101ff;fill-opacity:1;stroke:none"
         d="m 107.79917,121.86414 -0.35724,1.07173 c -0.78235,-0.21347 -1.67727,-0.7201 -2.49726,-0.40259 -0.56867,0.22019 -1.01885,0.84286 -0.47908,1.34876 1.02747,0.963 2.91812,0.3525 3.53122,1.91453 1.10975,2.82736 -3.31527,3.45764 -4.99327,2.30346 -0.39368,-0.27077 -0.69604,-1.05259 0.0138,-1.13967 0.58789,-0.0721 3.77683,1.3057 3.54556,-0.44767 -0.17639,-1.33727 -2.92335,-0.9809 -3.65734,-1.99307 -2.2013,-3.03561 3.19045,-3.54824 4.89363,-2.65548"
         id="path9646" /></g><path
       style="fill:#0101ff;fill-opacity:0.50043499;stroke:none"
       d="m 89.367602,178.01368 c -0.14144,1.11916 -0.83625,4.99581 0.2354,5.71093 0.761172,0.50792 2.449202,0.18358 3.337024,0.18358 v 1.07173 h -5.001404 v -5.0014 l 0.18359,-1.85637 1.24539,-0.10847"
       id="path9648" /><path
       style="fill:#0101ff;fill-opacity:0.50043499;stroke:none"
       d="m 79.543442,177.83506 c 0.37918,1.28283 -0.55682,5.12251 0.59264,5.88955 0.76117,0.50792 2.44921,0.18358 3.33703,0.18358 -0.0572,1.74142 -2.0791,1.05897 -3.39381,1.07242 -0.41402,0.004 -1.29041,0.21834 -1.5956,-0.14927 -0.31606,-0.3807 -0.0134,-1.35357 -0.0134,-1.81626 0,-1.58325 0.0451,-3.44371 -0.17725,-5.0014 l 1.25036,-0.17862"
       id="path9650" /><path
       style="fill:#0101ff;fill-opacity:0.50043499;stroke:none"
       d="m 62.395762,181.22887 c 1.75913,-1.23916 2.4981,-3.2134 4.82278,-3.21519 l -2.40657,3.03657 2.58519,3.92967 c -1.86143,-0.001 -2.93854,-1.2268 -3.75105,-2.85794 -1.14308,0.81309 -1.25752,1.53276 -1.25035,2.85794 h -1.42898 l 0.17862,-7.14486 c 1.67907,0.45966 1.25036,1.91756 1.25036,3.39381"
       id="path9652" /><path
       style="fill:#0101ff;fill-opacity:0.50043499;stroke:none"
       d="m 55.965382,178.37093 -0.35725,0.8931 c -0.51409,-0.0756 -4.85659,-0.53549 -3.15496,1.1587 0.95345,0.94928 2.75126,0.35817 3.48023,1.70904 1.90262,3.52577 -3.7719,2.7365 -5.32667,2.31228 0.34496,-2.15537 3.8206,1.02771 4.12235,-1.25738 0.17351,-1.31391 -2.98258,-1.287 -3.63252,-2.1746 -2.22051,-3.03246 3.25637,-3.33489 4.86882,-2.64114"
       id="path9654" /><path
       style="fill:#0101ff;fill-opacity:0.50043499;stroke:none"
       d="m 73.113052,178.01365 v 6.96624 h -1.25036 v -6.96624 h 1.25036"
       id="path9656" /><path
       id="path9658"
       style="fill:#0101ff;fill-opacity:0.50043499;stroke:none"
       d="m 139.08198,184.60415 c -2.21452,-0.0262 -1.42898,-3.17447 -1.42898,-4.82278 0,-0.55392 -0.21735,-1.73704 0.27938,-2.12885 0.43144,-0.3403 1.35886,-0.0135 1.86422,-0.0241 2.07015,-0.0435 5.24183,0.98947 3.50669,3.74182 -1.0149,1.60985 -2.90046,0.34241 -3.93491,1.37686 -0.43309,0.43309 -0.28634,1.30107 -0.2864,1.85706 m 0.88282,-5.9624 c -0.41293,5.9e-4 -0.82954,0.0377 -1.18907,0.0377 v 2.67942 c 0.7245,0 1.63324,0.14121 2.3182,-0.13229 1.02627,-0.40977 1.16426,-1.79261 0.17157,-2.33629 -0.36989,-0.20258 -0.83271,-0.24923 -1.3007,-0.24857 z" /><path
       id="path9660"
       style="fill:#0101ff;fill-opacity:0.50043499;stroke:none"
       d="m 131.16509,178.01368 2.85793,6.96624 c -1.67462,-0.006 -1.64143,-1.57707 -3.21532,-1.60677 -0.6171,-0.0116 -1.54625,-0.15646 -2.09425,0.18276 -1.00274,0.6207 -0.77876,1.40726 -2.19253,1.42401 l 2.18895,-5.18002 0.93872,-1.73826 1.5165,-0.048 m -1.07173,1.60761 -1.07173,2.5007 h 2.5007 l -1.07173,-2.5007 z" /><path
       style="fill:#0101ff;fill-opacity:0.50043499;stroke:none"
       d="m 113.48154,177.83506 1.6076,5.0014 h 0.35724 l 1.60759,-4.82278 h 1.42898 l 1.42897,4.82278 h 0.53587 l 1.42897,-4.82278 h 1.42897 c -0.60529,2.21758 -1.32617,6.96423 -3.92967,6.96624 l -1.42898,-4.64416 c -1.23656,1.07987 -0.88469,3.58817 -2.21816,4.46043 -0.90655,0.59301 -1.40902,-0.37575 -1.67706,-1.06675 -0.70963,-1.82945 -1.41897,-3.79421 -1.82067,-5.71576 l 1.25035,-0.17862"
       id="path9662" /><path
       style="fill:#0101ff;fill-opacity:0.50043499;stroke:none"
       d="m 107.94425,178.37093 -0.35724,1.07173 c -0.78235,-0.21347 -1.67727,-0.7201 -2.49726,-0.40259 -0.56867,0.22019 -1.01885,0.84286 -0.47908,1.34876 1.02747,0.963 2.91812,0.3525 3.53122,1.91453 1.10975,2.82736 -3.31527,3.45764 -4.99327,2.30346 -0.39368,-0.27077 -0.69604,-1.05259 0.0138,-1.13967 0.58789,-0.0721 3.77683,1.3057 3.54556,-0.44767 -0.17639,-1.33727 -2.92335,-0.9809 -3.65734,-1.99307 -2.2013,-3.03561 3.19045,-3.54824 4.89363,-2.65548"
       id="path9664" /><path
       style="fill:#0101ff;fill-opacity:0.50043499;stroke:none"
       d="m 89.367602,178.01368 c -0.14144,1.11916 -0.83625,4.99581 0.2354,5.71093 0.761172,0.50792 2.449202,0.18358 3.337024,0.18358 v 1.07173 h -5.001404 v -5.0014 l 0.18359,-1.85637 1.24539,-0.10847"
       id="path9666" /><path
       style="fill:#0101ff;fill-opacity:0.50043499;stroke:none"
       d="m 79.543442,177.83506 c 0.37918,1.28283 -0.55682,5.12251 0.59264,5.88955 0.76117,0.50792 2.44921,0.18358 3.33703,0.18358 -0.0572,1.74142 -2.0791,1.05897 -3.39381,1.07242 -0.41402,0.004 -1.29041,0.21834 -1.5956,-0.14927 -0.31606,-0.3807 -0.0134,-1.35357 -0.0134,-1.81626 0,-1.58325 0.0451,-3.44371 -0.17725,-5.0014 l 1.25036,-0.17862"
       id="path9668" /><g
       id="g10485"><path
         style="fill:#01ff01;fill-opacity:1;stroke:none"
         d="m 61.347078,102.95821 c 1.75913,-1.23916 2.4981,-3.213396 4.82278,-3.215186 l -2.40657,3.036566 2.58519,3.92967 c -1.86143,-0.001 -2.93854,-1.2268 -3.75105,-2.85794 -1.14308,0.81309 -1.25752,1.53276 -1.25035,2.85794 h -1.42898 l 0.17862,-7.144856 c 1.67907,0.459656 1.25036,1.917556 1.25036,3.393806"
         id="path9670" /><path
         style="fill:#01ff01;fill-opacity:1;stroke:none"
         d="m 54.916698,100.10027 -0.35725,0.8931 c -0.51409,-0.0756 -4.85659,-0.53549 -3.15496,1.1587 0.95345,0.94928 2.75126,0.35817 3.48023,1.70904 1.90262,3.52577 -3.7719,2.7365 -5.32667,2.31228 0.34496,-2.15537 3.8206,1.02771 4.12235,-1.25738 0.17351,-1.31391 -2.98258,-1.287 -3.63252,-2.1746 -2.22051,-3.032456 3.25637,-3.334886 4.86882,-2.64114"
         id="path9672" /><path
         style="fill:#01ff01;fill-opacity:1;stroke:none"
         d="m 72.064368,99.742994 v 6.966236 h -1.25036 v -6.966236 h 1.25036"
         id="path9674" /><path
         id="path9676"
         style="fill:#01ff01;fill-opacity:1;stroke:none"
         d="m 138.0333,106.33349 c -2.21452,-0.0262 -1.42898,-3.17447 -1.42898,-4.82278 0,-0.55392 -0.21735,-1.737036 0.27938,-2.128846 0.43144,-0.3403 1.35886,-0.0135 1.86422,-0.0241 2.07015,-0.0435 5.24183,0.989466 3.50669,3.741816 -1.0149,1.60985 -2.90046,0.34241 -3.93491,1.37686 -0.43309,0.43309 -0.28634,1.30107 -0.2864,1.85706 m 0.88282,-5.9624 c -0.41293,5.9e-4 -0.82954,0.0377 -1.18907,0.0377 v 2.67942 c 0.7245,0 1.63324,0.14121 2.3182,-0.13229 1.02627,-0.40977 1.16426,-1.79261 0.17157,-2.33629 -0.36989,-0.20258 -0.83271,-0.24923 -1.3007,-0.24857 z" /><path
         id="path9678"
         style="fill:#01ff01;fill-opacity:1;stroke:none"
         d="m 130.11641,99.743024 2.85793,6.966236 c -1.67462,-0.006 -1.64143,-1.57707 -3.21532,-1.60677 -0.6171,-0.0116 -1.54625,-0.15646 -2.09425,0.18276 -1.00274,0.6207 -0.77876,1.40726 -2.19253,1.42401 l 2.18895,-5.18002 0.93872,-1.738256 1.5165,-0.048 m -1.07173,1.607606 -1.07173,2.5007 h 2.5007 l -1.07173,-2.5007 z" /><path
         style="fill:#01ff01;fill-opacity:1;stroke:none"
         d="m 112.43286,99.564404 1.6076,5.001396 h 0.35724 l 1.60759,-4.822776 h 1.42898 l 1.42897,4.822776 h 0.53587 l 1.42897,-4.822776 h 1.42897 c -0.60529,2.217576 -1.32617,6.964226 -3.92967,6.966236 l -1.42898,-4.64416 c -1.23656,1.07987 -0.88469,3.58817 -2.21816,4.46043 -0.90655,0.59301 -1.40902,-0.37575 -1.67706,-1.06675 -0.70963,-1.82945 -1.41897,-3.79421 -1.82067,-5.715756 l 1.25035,-0.17862"
         id="path9680" /><path
         style="fill:#01ff01;fill-opacity:1;stroke:none"
         d="m 106.89557,100.10027 -0.35724,1.07173 c -0.78235,-0.21347 -1.67727,-0.7201 -2.49726,-0.40259 -0.56867,0.22019 -1.01885,0.84286 -0.47908,1.34876 1.02747,0.963 2.91812,0.3525 3.53122,1.91453 1.10975,2.82736 -3.31527,3.45764 -4.99327,2.30346 -0.39368,-0.27077 -0.69604,-1.05259 0.0138,-1.13967 0.58789,-0.0721 3.77683,1.3057 3.54556,-0.44767 -0.17639,-1.33727 -2.92335,-0.9809 -3.65734,-1.99307 -2.201302,-3.035606 3.19045,-3.548236 4.89363,-2.65548"
         id="path9682" /><path
         style="fill:#01ff01;fill-opacity:1;stroke:none"
         d="m 88.318918,99.743024 c -0.14144,1.119156 -0.83625,4.995806 0.2354,5.710926 0.761172,0.50792 2.449202,0.18358 3.337024,0.18358 v 1.07173 h -5.001404 v -5.0014 l 0.18359,-1.856366 1.24539,-0.10847"
         id="path9684" /><path
         style="fill:#01ff01;fill-opacity:1;stroke:none"
         d="m 78.494758,99.564404 c 0.37918,1.282826 -0.55682,5.122506 0.59264,5.889546 0.76117,0.50792 2.44921,0.18358 3.33703,0.18358 -0.0572,1.74142 -2.0791,1.05897 -3.39381,1.07242 -0.41402,0.004 -1.29041,0.21834 -1.5956,-0.14927 -0.31606,-0.3807 -0.0134,-1.35357 -0.0134,-1.81626 0,-1.58325 0.0451,-3.44371 -0.17725,-5.001396 l 1.25036,-0.17862"
         id="path9686" /><path
         style="fill:#01ff01;fill-opacity:1;stroke:none"
         d="m 61.347078,102.95821 c 1.75913,-1.23916 2.4981,-3.213396 4.82278,-3.215186 l -2.40657,3.036566 2.58519,3.92967 c -1.86143,-0.001 -2.93854,-1.2268 -3.75105,-2.85794 -1.14308,0.81309 -1.25752,1.53276 -1.25035,2.85794 h -1.42898 l 0.17862,-7.144856 c 1.67907,0.459656 1.25036,1.917556 1.25036,3.393806"
         id="path9688" /><path
         style="fill:#01ff01;fill-opacity:1;stroke:none"
         d="m 54.916698,100.10027 -0.35725,0.8931 c -0.51409,-0.0756 -4.85659,-0.53549 -3.15496,1.1587 0.95345,0.94928 2.75126,0.35817 3.48023,1.70904 1.90262,3.52577 -3.7719,2.7365 -5.32667,2.31228 0.34496,-2.15537 3.8206,1.02771 4.12235,-1.25738 0.17351,-1.31391 -2.98258,-1.287 -3.63252,-2.1746 -2.22051,-3.032456 3.25637,-3.334886 4.86882,-2.64114"
         id="path9690" /></g><g
       id="g10472"><path
         style="fill:#ff0101;fill-opacity:1;stroke:none"
         d="m 74.743468,77.14183 v 6.96624 h -1.25036 v -6.96624 h 1.25036"
         id="path9692" /><path
         id="path9694"
         style="fill:#ff0101;fill-opacity:1;stroke:none"
         d="m 140.71239,83.73233 c -2.21452,-0.0262 -1.42898,-3.17447 -1.42898,-4.82278 0,-0.55392 -0.21735,-1.73704 0.27938,-2.12885 0.43144,-0.3403 1.35886,-0.0135 1.86422,-0.0241 2.07015,-0.0435 5.24183,0.98947 3.50669,3.74182 -1.0149,1.60985 -2.90046,0.34241 -3.93491,1.37686 -0.43309,0.43309 -0.28634,1.30107 -0.2864,1.85706 m 0.88282,-5.9624 c -0.41293,5.9e-4 -0.82954,0.0377 -1.18907,0.0377 v 2.67942 c 0.7245,0 1.63324,0.14121 2.3182,-0.13229 1.02627,-0.40977 1.16426,-1.79261 0.17157,-2.33629 -0.36989,-0.20258 -0.83271,-0.24923 -1.3007,-0.24857 z" /><path
         id="path9696"
         style="fill:#ff0101;fill-opacity:1;stroke:none"
         d="m 132.7955,77.14186 2.85793,6.96624 c -1.67462,-0.006 -1.64143,-1.57707 -3.21532,-1.60677 -0.6171,-0.0116 -1.54625,-0.15646 -2.09425,0.18276 -1.00274,0.6207 -0.77876,1.40726 -2.19253,1.42401 l 2.18895,-5.18002 0.93872,-1.73826 1.5165,-0.048 m -1.07173,1.60761 -1.07173,2.5007 h 2.5007 l -1.07173,-2.5007 z" /><path
         style="fill:#ff0101;fill-opacity:1;stroke:none"
         d="m 115.11195,76.96324 1.6076,5.0014 h 0.35724 l 1.60759,-4.82278 h 1.42898 l 1.42897,4.82278 h 0.53587 l 1.42897,-4.82278 h 1.42897 c -0.60529,2.21758 -1.32617,6.96423 -3.92967,6.96624 l -1.42898,-4.64416 c -1.23656,1.07987 -0.88469,3.58817 -2.21816,4.46043 -0.90655,0.59301 -1.40902,-0.37575 -1.67706,-1.06675 -0.70963,-1.82945 -1.41897,-3.79421 -1.82067,-5.71576 l 1.25035,-0.17862"
         id="path9698" /><path
         style="fill:#ff0101;fill-opacity:1;stroke:none"
         d="m 109.57466,77.49911 -0.35724,1.07173 c -0.78235,-0.21347 -1.67727,-0.7201 -2.49726,-0.40259 -0.56867,0.22019 -1.01885,0.84286 -0.47908,1.34876 1.02747,0.963 2.91812,0.3525 3.53122,1.91453 1.10975,2.82736 -3.31527,3.45764 -4.99327,2.30346 -0.39368,-0.27077 -0.69604,-1.05259 0.0138,-1.13967 0.58789,-0.0721 3.77683,1.3057 3.54556,-0.44767 -0.17639,-1.33727 -2.92335,-0.9809 -3.65734,-1.99307 -2.2013,-3.03561 3.19045,-3.54824 4.89363,-2.65548"
         id="path9700" /><path
         style="fill:#ff0101;fill-opacity:1;stroke:none"
         d="m 90.998018,77.14186 c -0.14144,1.11916 -0.83625,4.99581 0.2354,5.71093 0.761172,0.50792 2.449202,0.18358 3.337024,0.18358 v 1.07173 h -5.001404 v -5.0014 l 0.18359,-1.85637 1.24539,-0.10847"
         id="path9702" /><path
         style="fill:#ff0101;fill-opacity:1;stroke:none"
         d="m 81.173858,76.96324 c 0.37918,1.28283 -0.55682,5.12251 0.59264,5.88955 0.76117,0.50792 2.44921,0.18358 3.33703,0.18358 -0.0572,1.74142 -2.0791,1.05897 -3.39381,1.07242 -0.41402,0.004 -1.29041,0.21834 -1.5956,-0.14927 -0.31606,-0.3807 -0.0134,-1.35357 -0.0134,-1.81626 0,-1.58325 0.0451,-3.44371 -0.17725,-5.0014 l 1.25036,-0.17862"
         id="path9704" /><path
         style="fill:#ff0101;fill-opacity:1;stroke:none"
         d="m 64.026178,80.35705 c 1.75913,-1.23916 2.4981,-3.2134 4.82278,-3.21519 l -2.40657,3.03657 2.58519,3.92967 c -1.86143,-10e-4 -2.93854,-1.2268 -3.75105,-2.85794 -1.14308,0.81309 -1.25752,1.53276 -1.25035,2.85794 h -1.42898 l 0.17862,-7.14486 c 1.67907,0.45966 1.25036,1.91756 1.25036,3.39381"
         id="path9706" /><path
         style="fill:#ff0101;fill-opacity:1;stroke:none"
         d="m 57.595798,77.49911 -0.35725,0.8931 c -0.51409,-0.0756 -4.85659,-0.53549 -3.15496,1.1587 0.95345,0.94928 2.75126,0.35817 3.48023,1.70904 1.90262,3.52577 -3.7719,2.7365 -5.32667,2.31228 0.34496,-2.15537 3.8206,1.02771 4.12235,-1.25738 0.17351,-1.31391 -2.98258,-1.287 -3.63252,-2.1746 -2.22051,-3.03246 3.25637,-3.33489 4.86882,-2.64114"
         id="path9708" /><path
         style="fill:#ff0101;fill-opacity:1;stroke:none"
         d="m 74.743468,77.14183 v 6.96624 h -1.25036 v -6.96624 h 1.25036"
         id="path9710" /><path
         id="path9712"
         style="fill:#ff0101;fill-opacity:1;stroke:none"
         d="m 140.71239,83.73233 c -2.21452,-0.0262 -1.42898,-3.17447 -1.42898,-4.82278 0,-0.55392 -0.21735,-1.73704 0.27938,-2.12885 0.43144,-0.3403 1.35886,-0.0135 1.86422,-0.0241 2.07015,-0.0435 5.24183,0.98947 3.50669,3.74182 -1.0149,1.60985 -2.90046,0.34241 -3.93491,1.37686 -0.43309,0.43309 -0.28634,1.30107 -0.2864,1.85706 m 0.88282,-5.9624 c -0.41293,5.9e-4 -0.82954,0.0377 -1.18907,0.0377 v 2.67942 c 0.7245,0 1.63324,0.14121 2.3182,-0.13229 1.02627,-0.40977 1.16426,-1.79261 0.17157,-2.33629 -0.36989,-0.20258 -0.83271,-0.24923 -1.3007,-0.24857 z" /><path
         id="path9714"
         style="fill:#ff0101;fill-opacity:1;stroke:none"
         d="m 132.7955,77.14186 2.85793,6.96624 c -1.67462,-0.006 -1.64143,-1.57707 -3.21532,-1.60677 -0.6171,-0.0116 -1.54625,-0.15646 -2.09425,0.18276 -1.00274,0.6207 -0.77876,1.40726 -2.19253,1.42401 l 2.18895,-5.18002 0.93872,-1.73826 1.5165,-0.048 m -1.07173,1.60761 -1.07173,2.5007 h 2.5007 l -1.07173,-2.5007 z" /><path
         style="fill:#ff0101;fill-opacity:1;stroke:none"
         d="m 115.11195,76.96324 1.6076,5.0014 h 0.35724 l 1.60759,-4.82278 h 1.42898 l 1.42897,4.82278 h 0.53587 l 1.42897,-4.82278 h 1.42897 c -0.60529,2.21758 -1.32617,6.96423 -3.92967,6.96624 l -1.42898,-4.64416 c -1.23656,1.07987 -0.88469,3.58817 -2.21816,4.46043 -0.90655,0.59301 -1.40902,-0.37575 -1.67706,-1.06675 -0.70963,-1.82945 -1.41897,-3.79421 -1.82067,-5.71576 l 1.25035,-0.17862"
         id="path9716" /><path
         style="fill:#ff0101;fill-opacity:1;stroke:none"
         d="m 109.57466,77.49911 -0.35724,1.07173 c -0.78235,-0.21347 -1.67727,-0.7201 -2.49726,-0.40259 -0.56867,0.22019 -1.01885,0.84286 -0.47908,1.34876 1.02747,0.963 2.91812,0.3525 3.53122,1.91453 1.10975,2.82736 -3.31527,3.45764 -4.99327,2.30346 -0.39368,-0.27077 -0.69604,-1.05259 0.0138,-1.13967 0.58789,-0.0721 3.77683,1.3057 3.54556,-0.44767 -0.17639,-1.33727 -2.92335,-0.9809 -3.65734,-1.99307 -2.2013,-3.03561 3.19045,-3.54824 4.89363,-2.65548"
         id="path9718" /><path
         style="fill:#ff0101;fill-opacity:1;stroke:none"
         d="m 90.998018,77.14186 c -0.14144,1.11916 -0.83625,4.99581 0.2354,5.71093 0.761172,0.50792 2.449202,0.18358 3.337024,0.18358 v 1.07173 h -5.001404 v -5.0014 l 0.18359,-1.85637 1.24539,-0.10847"
         id="path9720" /><path
         style="fill:#ff0101;fill-opacity:1;stroke:none"
         d="m 81.173858,76.96324 c 0.37918,1.28283 -0.55682,5.12251 0.59264,5.88955 0.76117,0.50792 2.44921,0.18358 3.33703,0.18358 -0.0572,1.74142 -2.0791,1.05897 -3.39381,1.07242 -0.41402,0.004 -1.29041,0.21834 -1.5956,-0.14927 -0.31606,-0.3807 -0.0134,-1.35357 -0.0134,-1.81626 0,-1.58325 0.0451,-3.44371 -0.17725,-5.0014 l 1.25036,-0.17862"
         id="path9722" /><path
         style="fill:#ff0101;fill-opacity:1;stroke:none"
         d="m 64.026178,80.35705 c 1.75913,-1.23916 2.4981,-3.2134 4.82278,-3.21519 l -2.40657,3.03657 2.58519,3.92967 c -1.86143,-10e-4 -2.93854,-1.2268 -3.75105,-2.85794 -1.14308,0.81309 -1.25752,1.53276 -1.25035,2.85794 h -1.42898 l 0.17862,-7.14486 c 1.67907,0.45966 1.25036,1.91756 1.25036,3.39381"
         id="path9724" /><path
         style="fill:#ff0101;fill-opacity:1;stroke:none"
         d="m 57.595798,77.49911 -0.35725,0.8931 c -0.51409,-0.0756 -4.85659,-0.53549 -3.15496,1.1587 0.95345,0.94928 2.75126,0.35817 3.48023,1.70904 1.90262,3.52577 -3.7719,2.7365 -5.32667,2.31228 0.34496,-2.15537 3.8206,1.02771 4.12235,-1.25738 0.17351,-1.31391 -2.98258,-1.287 -3.63252,-2.1746 -2.22051,-3.03246 3.25637,-3.33489 4.86882,-2.64114"
         id="path9726" /></g></g></svg>
