<?xml version="1.0" encoding="UTF-8" standalone="no"?>
<!-- Created with Inkscape (http://www.inkscape.org/) -->

<svg
   width="93.229507mm"
   height="7.6562161mm"
   viewBox="0 0 93.229507 7.6562161"
   version="1.1"
   id="svg5"
   xml:space="preserve"
   inkscape:version="1.2.2 (b0a8486541, 2022-12-01)"
   sodipodi:docname="_Blue.svg"
   xmlns:inkscape="http://www.inkscape.org/namespaces/inkscape"
   xmlns:sodipodi="http://sodipodi.sourceforge.net/DTD/sodipodi-0.dtd"
   xmlns="http://www.w3.org/2000/svg"
   xmlns:svg="http://www.w3.org/2000/svg"><sodipodi:namedview
     id="namedview7"
     pagecolor="#505050"
     bordercolor="#ffffff"
     borderopacity="1"
     inkscape:showpageshadow="0"
     inkscape:pageopacity="0"
     inkscape:pagecheckerboard="1"
     inkscape:deskcolor="#d1d1d1"
     inkscape:document-units="mm"
     showgrid="false"
     inkscape:lockguides="true"
     inkscape:zoom="0.3521855"
     inkscape:cx="363.44483"
     inkscape:cy="-499.73665"
     inkscape:window-width="982"
     inkscape:window-height="1708"
     inkscape:window-x="0"
     inkscape:window-y="0"
     inkscape:window-maximized="1"
     inkscape:current-layer="layer1-3" /><defs
     id="defs2" /><g
     inkscape:label="Layer 1"
     inkscape:groupmode="layer"
     id="layer1"
     transform="translate(-35.669615,-317.01473)"><g
       inkscape:label="Layer 1"
       id="layer1-3"
       transform="translate(7.7393453,59.687947)"><path
         style="fill:#ff0101;fill-opacity:0.476935;stroke:none"
         d="m 69.528343,422.04132 v 6.96624 h -1.25036 v -6.96624 h 1.25036"
         id="path5604" /><path
         id="path5602"
         style="fill:#ff0101;fill-opacity:0.476935;stroke:none"
         d="m 140.47408,310.36552 c -2.21452,-0.0262 -1.42898,-3.17447 -1.42898,-4.82278 0,-0.55392 -0.21735,-1.73704 0.27938,-2.12885 0.43144,-0.3403 1.35886,-0.0135 1.86422,-0.0241 2.07015,-0.0435 5.24183,0.98947 3.50669,3.74182 -1.0149,1.60985 -2.90046,0.34241 -3.93491,1.37686 -0.43309,0.43309 -0.28634,1.30107 -0.2864,1.85706 m 0.88282,-5.9624 c -0.41293,5.9e-4 -0.82954,0.0377 -1.18907,0.0377 v 2.67942 c 0.7245,0 1.63324,0.14121 2.3182,-0.13229 1.02627,-0.40977 1.16426,-1.79261 0.17157,-2.33629 -0.36989,-0.20258 -0.83271,-0.24923 -1.3007,-0.24857 z" /><path
         id="path5600"
         style="fill:#ff0101;fill-opacity:0.476935;stroke:none"
         d="m 127.58038,422.04135 2.85793,6.96624 c -1.67462,-0.006 -1.64143,-1.57707 -3.21532,-1.60677 -0.6171,-0.0116 -1.54625,-0.15646 -2.09425,0.18276 -1.00274,0.6207 -0.77876,1.40726 -2.19253,1.42401 l 2.18895,-5.18002 0.93872,-1.73826 1.5165,-0.048 m -1.07173,1.60761 -1.07173,2.5007 h 2.5007 l -1.07173,-2.5007 z" /><path
         style="fill:#ff0101;fill-opacity:0.476935;stroke:none"
         d="m 109.89683,421.86273 1.6076,5.0014 h 0.35724 l 1.60759,-4.82278 h 1.42898 l 1.42897,4.82278 h 0.53587 l 1.42897,-4.82278 h 1.42897 c -0.60529,2.21758 -1.32617,6.96423 -3.92967,6.96624 l -1.42898,-4.64416 c -1.23656,1.07987 -0.88469,3.58817 -2.21816,4.46043 -0.90655,0.59301 -1.40902,-0.37575 -1.67706,-1.06675 -0.70963,-1.82945 -1.41897,-3.79421 -1.82067,-5.71576 l 1.25035,-0.17862"
         id="path5598" /><path
         style="fill:#ff0101;fill-opacity:0.476935;stroke:none"
         d="m 104.35954,422.3986 -0.35724,1.07173 c -0.78235,-0.21347 -1.67727,-0.7201 -2.49726,-0.40259 -0.56867,0.22019 -1.01885,0.84286 -0.47908,1.34876 1.02747,0.963 2.91812,0.3525 3.53122,1.91453 1.10975,2.82736 -3.31527,3.45764 -4.993273,2.30346 -0.39368,-0.27077 -0.69604,-1.05259 0.0138,-1.13967 0.587893,-0.0721 3.776833,1.3057 3.545563,-0.44767 -0.17639,-1.33727 -2.92335,-0.9809 -3.657343,-1.99307 -2.2013,-3.03561 3.190453,-3.54824 4.893633,-2.65548"
         id="path5596" /><path
         style="fill:#ff0101;fill-opacity:0.476935;stroke:none"
         d="m 85.782893,422.04135 c -0.14144,1.11916 -0.83625,4.99581 0.2354,5.71093 0.761172,0.50792 2.449202,0.18358 3.337024,0.18358 v 1.07173 h -5.001404 v -5.0014 l 0.18359,-1.85637 1.24539,-0.10847"
         id="path5594" /><path
         style="fill:#ff0101;fill-opacity:0.476935;stroke:none"
         d="m 75.958733,421.86273 c 0.37918,1.28283 -0.55682,5.12251 0.59264,5.88955 0.76117,0.50792 2.44921,0.18358 3.33703,0.18358 -0.0572,1.74142 -2.0791,1.05897 -3.39381,1.07242 -0.41402,0.004 -1.29041,0.21834 -1.5956,-0.14927 -0.31606,-0.3807 -0.0134,-1.35357 -0.0134,-1.81626 0,-1.58325 0.0451,-3.44371 -0.17725,-5.0014 l 1.25036,-0.17862"
         id="path5592" /><path
         style="display:none;fill:#ff0101;fill-opacity:0.476935;stroke:none"
         d="m 64.119596,145.75295 c 1.75913,-1.23916 2.4981,-3.2134 4.82278,-3.21519 l -2.40657,3.03657 2.58519,3.92967 c -1.86143,-0.001 -2.93854,-1.2268 -3.75105,-2.85794 -1.14308,0.81309 -1.25752,1.53276 -1.25035,2.85794 h -1.42898 l 0.17862,-7.14486 c 1.67907,0.45966 1.25036,1.91756 1.25036,3.39381"
         id="path5590" /><path
         style="fill:#ff0101;fill-opacity:0.476935;stroke:none"
         d="m 52.380673,422.3986 -0.35725,0.8931 c -0.51409,-0.0756 -4.85659,-0.53549 -3.15496,1.1587 0.95345,0.94928 2.75126,0.35817 3.48023,1.70904 1.90262,3.52577 -3.7719,2.7365 -5.32667,2.31228 0.34496,-2.15537 3.8206,1.02771 4.12235,-1.25738 0.17351,-1.31391 -2.98258,-1.287 -3.63252,-2.1746 -2.22051,-3.03246 3.25637,-3.33489 4.86882,-2.64114"
         id="path5588" /><path
         style="fill:#ff0101;fill-opacity:0.476935;stroke:none"
         d="m 69.528343,422.04132 v 6.96624 h -1.25036 v -6.96624 h 1.25036"
         id="path9188" /><path
         id="path9190"
         style="fill:#01ff01;fill-opacity:0.495055;stroke:none"
         d="m 116.63093,287.17572 c -2.21452,-0.0262 -1.42898,-3.17447 -1.42898,-4.82278 0,-0.55392 -0.21735,-1.73704 0.27938,-2.12885 0.43144,-0.3403 1.35886,-0.0135 1.86422,-0.0241 2.07015,-0.0435 5.24183,0.98947 3.50669,3.74182 -1.0149,1.60985 -2.90046,0.34241 -3.93491,1.37686 -0.43309,0.43309 -0.28634,1.30107 -0.2864,1.85706 m 0.88282,-5.9624 c -0.41293,5.9e-4 -0.82954,0.0377 -1.18907,0.0377 v 2.67942 c 0.7245,0 1.63324,0.14121 2.3182,-0.13229 1.02627,-0.40977 1.16426,-1.79261 0.17157,-2.33629 -0.36989,-0.20258 -0.83271,-0.24923 -1.3007,-0.24857 z" /><path
         id="path9192"
         style="fill:#01ff01;fill-opacity:0.495055;stroke:none"
         d="m 108.71404,280.58525 2.85793,6.96624 c -1.67462,-0.006 -1.64143,-1.57707 -3.21532,-1.60677 -0.6171,-0.0116 -1.54625,-0.15646 -2.09425,0.18276 -1.00274,0.6207 -0.77876,1.40726 -2.19253,1.42401 l 2.18895,-5.18002 0.93872,-1.73826 1.5165,-0.048 m -1.07173,1.60761 -1.07173,2.5007 h 2.5007 l -1.07173,-2.5007 z" /><path
         style="fill:#01ff01;fill-opacity:0.495055;stroke:none"
         d="m 91.030493,280.40663 1.6076,5.0014 h 0.35724 l 1.60759,-4.82278 h 1.42898 l 1.42897,4.82278 h 0.53587 l 1.42897,-4.82278 h 1.428967 c -0.60529,2.21758 -1.326167,6.96423 -3.929667,6.96624 l -1.42898,-4.64416 c -1.23656,1.07987 -0.88469,3.58817 -2.21816,4.46043 -0.90655,0.59301 -1.40902,-0.37575 -1.67706,-1.06675 -0.70963,-1.82945 -1.41897,-3.79421 -1.82067,-5.71576 l 1.25035,-0.17862"
         id="path9194" /><path
         style="fill:#01ff01;fill-opacity:0.495055;stroke:none"
         d="m 85.493203,280.9425 -0.35724,1.07173 c -0.78235,-0.21347 -1.67727,-0.7201 -2.49726,-0.40259 -0.56867,0.22019 -1.01885,0.84286 -0.47908,1.34876 1.02747,0.963 2.91812,0.3525 3.53122,1.91453 1.10975,2.82736 -3.31527,3.45764 -4.99327,2.30346 -0.39368,-0.27077 -0.69604,-1.05259 0.0138,-1.13967 0.58789,-0.0721 3.77683,1.3057 3.54556,-0.44767 -0.17639,-1.33727 -2.92335,-0.9809 -3.65734,-1.99307 -2.2013,-3.03561 3.19045,-3.54824 4.89363,-2.65548"
         id="path9196" /><path
         style="fill:#01ff01;fill-opacity:0.495055;stroke:none"
         d="m 66.916558,280.58525 c -0.14144,1.11916 -0.83625,4.99581 0.2354,5.71093 0.761172,0.50792 2.449202,0.18358 3.337024,0.18358 v 1.07173 h -5.001404 v -5.0014 l 0.18359,-1.85637 1.24539,-0.10847"
         id="path9198" /><path
         style="fill:#01ff01;fill-opacity:0.495055;stroke:none"
         d="m 57.092398,280.40663 c 0.37918,1.28283 -0.55682,5.12251 0.59264,5.88955 0.76117,0.50792 2.44921,0.18358 3.33703,0.18358 -0.0572,1.74142 -2.0791,1.05897 -3.39381,1.07242 -0.41402,0.004 -1.29041,0.21834 -1.5956,-0.14927 -0.31606,-0.3807 -0.0134,-1.35357 -0.0134,-1.81626 0,-1.58325 0.0451,-3.44371 -0.17725,-5.0014 l 1.25036,-0.17862"
         id="path9200" /><path
         style="fill:#01ff01;fill-opacity:0.495055;stroke:none"
         d="m 39.944718,283.80044 c 1.75913,-1.23916 2.4981,-3.2134 4.82278,-3.21519 l -2.40657,3.03657 2.58519,3.92967 c -1.86143,-10e-4 -2.93854,-1.2268 -3.75105,-2.85794 -1.14308,0.81309 -1.25752,1.53276 -1.25035,2.85794 h -1.42898 l 0.17862,-7.14486 c 1.67907,0.45966 1.25036,1.91756 1.25036,3.39381"
         id="path9202" /><path
         style="fill:#01ff01;fill-opacity:0.495055;stroke:none"
         d="m 33.514338,280.9425 -0.35725,0.8931 c -0.51409,-0.0756 -4.85659,-0.53549 -3.15496,1.1587 0.95345,0.94928 2.75126,0.35817 3.48023,1.70904 1.90262,3.52577 -3.7719,2.7365 -5.32667,2.31228 0.34496,-2.15537 3.8206,1.02771 4.12235,-1.25738 0.17351,-1.31391 -2.98258,-1.287 -3.63252,-2.1746 -2.22051,-3.03246 3.25637,-3.33489 4.86882,-2.64114"
         id="path9204" /><path
         style="fill:#01ff01;fill-opacity:0.495055;stroke:none"
         d="m 50.662008,280.58522 v 6.96624 h -1.25036 v -6.96624 h 1.25036"
         id="path9620" /><path
         id="path9622"
         style="fill:#01ff01;fill-opacity:0.495055;stroke:none"
         d="m 116.63093,287.17572 c -2.21452,-0.0262 -1.42898,-3.17447 -1.42898,-4.82278 0,-0.55392 -0.21735,-1.73704 0.27938,-2.12885 0.43144,-0.3403 1.35886,-0.0135 1.86422,-0.0241 2.07015,-0.0435 5.24183,0.98947 3.50669,3.74182 -1.0149,1.60985 -2.90046,0.34241 -3.93491,1.37686 -0.43309,0.43309 -0.28634,1.30107 -0.2864,1.85706 m 0.88282,-5.9624 c -0.41293,5.9e-4 -0.82954,0.0377 -1.18907,0.0377 v 2.67942 c 0.7245,0 1.63324,0.14121 2.3182,-0.13229 1.02627,-0.40977 1.16426,-1.79261 0.17157,-2.33629 -0.36989,-0.20258 -0.83271,-0.24923 -1.3007,-0.24857 z" /><path
         id="path9624"
         style="fill:#01ff01;fill-opacity:0.495055;stroke:none"
         d="m 108.71404,280.58525 2.85793,6.96624 c -1.67462,-0.006 -1.64143,-1.57707 -3.21532,-1.60677 -0.6171,-0.0116 -1.54625,-0.15646 -2.09425,0.18276 -1.00274,0.6207 -0.77876,1.40726 -2.19253,1.42401 l 2.18895,-5.18002 0.93872,-1.73826 1.5165,-0.048 m -1.07173,1.60761 -1.07173,2.5007 h 2.5007 l -1.07173,-2.5007 z" /><g
         id="g10498"
         transform="translate(-22.4988,136.33631)"><path
           style="fill:#0101ff;fill-opacity:1;stroke:none"
           d="m 113.33646,121.32827 1.6076,5.0014 h 0.35724 l 1.60759,-4.82278 h 1.42898 l 1.42897,4.82278 h 0.53587 l 1.42897,-4.82278 h 1.42897 c -0.60529,2.21758 -1.32617,6.96423 -3.92967,6.96624 l -1.42898,-4.64416 c -1.23656,1.07987 -0.88469,3.58817 -2.21816,4.46043 -0.90655,0.59301 -1.40902,-0.37575 -1.67706,-1.06675 -0.70963,-1.82945 -1.41897,-3.79421 -1.82067,-5.71576 l 1.25035,-0.17862"
           id="path9626" /><path
           style="fill:#0101ff;fill-opacity:1;stroke:none"
           d="m 107.79917,121.86414 -0.35724,1.07173 c -0.78235,-0.21347 -1.67727,-0.7201 -2.49726,-0.40259 -0.56867,0.22019 -1.01885,0.84286 -0.47908,1.34876 1.02747,0.963 2.91812,0.3525 3.53122,1.91453 1.10975,2.82736 -3.31527,3.45764 -4.99327,2.30346 -0.39368,-0.27077 -0.69604,-1.05259 0.0138,-1.13967 0.58789,-0.0721 3.77683,1.3057 3.54556,-0.44767 -0.17639,-1.33727 -2.92335,-0.9809 -3.65734,-1.99307 -2.2013,-3.03561 3.19045,-3.54824 4.89363,-2.65548"
           id="path9628" /><path
           style="fill:#0101ff;fill-opacity:1;stroke:none"
           d="m 89.222518,121.50689 c -0.14144,1.11916 -0.83625,4.99581 0.2354,5.71093 0.761172,0.50792 2.449202,0.18358 3.337024,0.18358 v 1.07173 h -5.001404 v -5.0014 l 0.18359,-1.85637 1.24539,-0.10847"
           id="path9630" /><path
           style="fill:#0101ff;fill-opacity:1;stroke:none"
           d="m 79.398358,121.32827 c 0.37918,1.28283 -0.55682,5.12251 0.59264,5.88955 0.76117,0.50792 2.44921,0.18358 3.33703,0.18358 -0.0572,1.74142 -2.0791,1.05897 -3.39381,1.07242 -0.41402,0.004 -1.29041,0.21834 -1.5956,-0.14927 -0.31606,-0.3807 -0.0134,-1.35357 -0.0134,-1.81626 0,-1.58325 0.0451,-3.44371 -0.17725,-5.0014 l 1.25036,-0.17862"
           id="path9632" /><path
           style="fill:#0101ff;fill-opacity:1;stroke:none"
           d="m 62.250678,124.72208 c 1.75913,-1.23916 2.4981,-3.2134 4.82278,-3.21519 l -2.40657,3.03657 2.58519,3.92967 c -1.86143,-0.001 -2.93854,-1.2268 -3.75105,-2.85794 -1.14308,0.81309 -1.25752,1.53276 -1.25035,2.85794 h -1.42898 l 0.17862,-7.14486 c 1.67907,0.45966 1.25036,1.91756 1.25036,3.39381"
           id="path9634" /><path
           style="fill:#0101ff;fill-opacity:1;stroke:none"
           d="m 55.820298,121.86414 -0.35725,0.8931 c -0.51409,-0.0756 -4.85659,-0.53549 -3.15496,1.1587 0.95345,0.94928 2.75126,0.35817 3.48023,1.70904 1.90262,3.52577 -3.7719,2.7365 -5.32667,2.31228 0.34496,-2.15537 3.8206,1.02771 4.12235,-1.25738 0.17351,-1.31391 -2.98258,-1.287 -3.63252,-2.1746 -2.22051,-3.03246 3.25637,-3.33489 4.86882,-2.64114"
           id="path9636" /><path
           style="fill:#0101ff;fill-opacity:1;stroke:none"
           d="m 72.967968,121.50686 v 6.96624 h -1.25036 v -6.96624 h 1.25036"
           id="path9638" /><path
           id="path9640"
           style="fill:#0101ff;fill-opacity:1;stroke:none"
           d="m 138.9369,128.09736 c -2.21452,-0.0262 -1.42898,-3.17447 -1.42898,-4.82278 0,-0.55392 -0.21735,-1.73704 0.27938,-2.12885 0.43144,-0.3403 1.35886,-0.0135 1.86422,-0.0241 2.07015,-0.0435 5.24183,0.98947 3.50669,3.74182 -1.0149,1.60985 -2.90046,0.34241 -3.93491,1.37686 -0.43309,0.43309 -0.28634,1.30107 -0.2864,1.85706 m 0.88282,-5.9624 c -0.41293,5.9e-4 -0.82954,0.0377 -1.18907,0.0377 v 2.67942 c 0.7245,0 1.63324,0.14121 2.3182,-0.13229 1.02627,-0.40977 1.16426,-1.79261 0.17157,-2.33629 -0.36989,-0.20258 -0.83271,-0.24923 -1.3007,-0.24857 z" /><path
           id="path9642"
           style="fill:#0101ff;fill-opacity:1;stroke:none"
           d="m 131.02001,121.50689 2.85793,6.96624 c -1.67462,-0.006 -1.64143,-1.57707 -3.21532,-1.60677 -0.6171,-0.0116 -1.54625,-0.15646 -2.09425,0.18276 -1.00274,0.6207 -0.77876,1.40726 -2.19253,1.42401 l 2.18895,-5.18002 0.93872,-1.73826 1.5165,-0.048 m -1.07173,1.60761 -1.07173,2.5007 h 2.5007 l -1.07173,-2.5007 z" /><path
           style="fill:#0101ff;fill-opacity:1;stroke:none"
           d="m 113.33646,121.32827 1.6076,5.0014 h 0.35724 l 1.60759,-4.82278 h 1.42898 l 1.42897,4.82278 h 0.53587 l 1.42897,-4.82278 h 1.42897 c -0.60529,2.21758 -1.32617,6.96423 -3.92967,6.96624 l -1.42898,-4.64416 c -1.23656,1.07987 -0.88469,3.58817 -2.21816,4.46043 -0.90655,0.59301 -1.40902,-0.37575 -1.67706,-1.06675 -0.70963,-1.82945 -1.41897,-3.79421 -1.82067,-5.71576 l 1.25035,-0.17862"
           id="path9644" /><path
           style="fill:#0101ff;fill-opacity:1;stroke:none"
           d="m 107.79917,121.86414 -0.35724,1.07173 c -0.78235,-0.21347 -1.67727,-0.7201 -2.49726,-0.40259 -0.56867,0.22019 -1.01885,0.84286 -0.47908,1.34876 1.02747,0.963 2.91812,0.3525 3.53122,1.91453 1.10975,2.82736 -3.31527,3.45764 -4.99327,2.30346 -0.39368,-0.27077 -0.69604,-1.05259 0.0138,-1.13967 0.58789,-0.0721 3.77683,1.3057 3.54556,-0.44767 -0.17639,-1.33727 -2.92335,-0.9809 -3.65734,-1.99307 -2.2013,-3.03561 3.19045,-3.54824 4.89363,-2.65548"
           id="path9646" /></g><path
         style="fill:#0101ff;fill-opacity:0.500435;stroke:none"
         d="m 69.875402,337.16499 c -0.14144,1.11916 -0.83625,4.99581 0.2354,5.71093 0.761172,0.50792 2.449202,0.18358 3.337024,0.18358 v 1.07173 h -5.001404 v -5.0014 l 0.18359,-1.85637 1.24539,-0.10847"
         id="path9648" /><path
         style="fill:#0101ff;fill-opacity:0.500435;stroke:none"
         d="m 60.051242,336.98637 c 0.37918,1.28283 -0.55682,5.12251 0.59264,5.88955 0.76117,0.50792 2.44921,0.18358 3.33703,0.18358 -0.0572,1.74142 -2.0791,1.05897 -3.39381,1.07242 -0.41402,0.004 -1.29041,0.21834 -1.5956,-0.14927 -0.31606,-0.3807 -0.0134,-1.35357 -0.0134,-1.81626 0,-1.58325 0.0451,-3.44371 -0.17725,-5.0014 l 1.25036,-0.17862"
         id="path9650" /><path
         style="fill:#0101ff;fill-opacity:0.500435;stroke:none"
         d="m 42.903562,340.38018 c 1.75913,-1.23916 2.4981,-3.2134 4.82278,-3.21519 l -2.40657,3.03657 2.58519,3.92967 c -1.86143,-0.001 -2.93854,-1.2268 -3.75105,-2.85794 -1.14308,0.81309 -1.25752,1.53276 -1.25035,2.85794 h -1.42898 l 0.17862,-7.14486 c 1.67907,0.45966 1.25036,1.91756 1.25036,3.39381"
         id="path9652" /><path
         style="fill:#0101ff;fill-opacity:0.500435;stroke:none"
         d="m 36.473182,337.52224 -0.35725,0.8931 c -0.51409,-0.0756 -4.85659,-0.53549 -3.15496,1.1587 0.95345,0.94928 2.75126,0.35817 3.48023,1.70904 1.90262,3.52577 -3.7719,2.7365 -5.32667,2.31228 0.34496,-2.15537 3.8206,1.02771 4.12235,-1.25738 0.17351,-1.31391 -2.98258,-1.287 -3.63252,-2.1746 -2.22051,-3.03246 3.25637,-3.33489 4.86882,-2.64114"
         id="path9654" /><path
         style="fill:#0101ff;fill-opacity:0.500435;stroke:none"
         d="m 53.620852,337.16496 v 6.96624 h -1.25036 v -6.96624 h 1.25036"
         id="path9656" /><path
         id="path9658"
         style="fill:#0101ff;fill-opacity:0.500435;stroke:none"
         d="m 119.58978,343.75546 c -2.21452,-0.0262 -1.42898,-3.17447 -1.42898,-4.82278 0,-0.55392 -0.21735,-1.73704 0.27938,-2.12885 0.43144,-0.3403 1.35886,-0.0135 1.86422,-0.0241 2.07015,-0.0435 5.24183,0.98947 3.50669,3.74182 -1.0149,1.60985 -2.90046,0.34241 -3.93491,1.37686 -0.43309,0.43309 -0.28634,1.30107 -0.2864,1.85706 m 0.88282,-5.9624 c -0.41293,5.9e-4 -0.82954,0.0377 -1.18907,0.0377 v 2.67942 c 0.7245,0 1.63324,0.14121 2.3182,-0.13229 1.02627,-0.40977 1.16426,-1.79261 0.17157,-2.33629 -0.36989,-0.20258 -0.83271,-0.24923 -1.3007,-0.24857 z" /><path
         id="path9660"
         style="fill:#0101ff;fill-opacity:0.500435;stroke:none"
         d="m 111.67289,337.16499 2.85793,6.96624 c -1.67462,-0.006 -1.64143,-1.57707 -3.21532,-1.60677 -0.6171,-0.0116 -1.54625,-0.15646 -2.09425,0.18276 -1.00274,0.6207 -0.77876,1.40726 -2.19253,1.42401 l 2.18895,-5.18002 0.93872,-1.73826 1.5165,-0.048 m -1.07173,1.60761 -1.07173,2.5007 h 2.5007 l -1.07173,-2.5007 z" /><path
         style="fill:#0101ff;fill-opacity:0.500435;stroke:none"
         d="m 93.98934,336.98637 1.6076,5.0014 h 0.35724 l 1.60759,-4.82278 h 1.42898 l 1.42897,4.82278 h 0.53587 l 1.42897,-4.82278 h 1.42897 c -0.60529,2.21758 -1.32617,6.96423 -3.92967,6.96624 l -1.42898,-4.64416 c -1.23656,1.07987 -0.88469,3.58817 -2.21816,4.46043 -0.90655,0.59301 -1.40902,-0.37575 -1.67706,-1.06675 -0.70963,-1.82945 -1.41897,-3.79421 -1.82067,-5.71576 l 1.25035,-0.17862"
         id="path9662" /><path
         style="fill:#0101ff;fill-opacity:0.500435;stroke:none"
         d="m 88.45205,337.52224 -0.35724,1.07173 c -0.78235,-0.21347 -1.67727,-0.7201 -2.49726,-0.40259 -0.56867,0.22019 -1.01885,0.84286 -0.47908,1.34876 1.02747,0.963 2.91812,0.3525 3.53122,1.91453 1.10975,2.82736 -3.31527,3.45764 -4.99327,2.30346 -0.39368,-0.27077 -0.69604,-1.05259 0.0138,-1.13967 0.58789,-0.0721 3.77683,1.3057 3.54556,-0.44767 -0.17639,-1.33727 -2.92335,-0.9809 -3.65734,-1.99307 -2.2013,-3.03561 3.19045,-3.54824 4.89363,-2.65548"
         id="path9664" /><path
         style="fill:#0101ff;fill-opacity:0.500435;stroke:none"
         d="m 69.875402,337.16499 c -0.14144,1.11916 -0.83625,4.99581 0.2354,5.71093 0.761172,0.50792 2.449202,0.18358 3.337024,0.18358 v 1.07173 h -5.001404 v -5.0014 l 0.18359,-1.85637 1.24539,-0.10847"
         id="path9666" /><path
         style="fill:#0101ff;fill-opacity:0.500435;stroke:none"
         d="m 60.051242,336.98637 c 0.37918,1.28283 -0.55682,5.12251 0.59264,5.88955 0.76117,0.50792 2.44921,0.18358 3.33703,0.18358 -0.0572,1.74142 -2.0791,1.05897 -3.39381,1.07242 -0.41402,0.004 -1.29041,0.21834 -1.5956,-0.14927 -0.31606,-0.3807 -0.0134,-1.35357 -0.0134,-1.81626 0,-1.58325 0.0451,-3.44371 -0.17725,-5.0014 l 1.25036,-0.17862"
         id="path9668" /><g
         id="g10485"
         transform="translate(-22.701525,201.22493)"><path
           style="fill:#01ff01;fill-opacity:1;stroke:none"
           d="m 61.347078,102.95821 c 1.75913,-1.23916 2.4981,-3.213396 4.82278,-3.215186 l -2.40657,3.036566 2.58519,3.92967 c -1.86143,-0.001 -2.93854,-1.2268 -3.75105,-2.85794 -1.14308,0.81309 -1.25752,1.53276 -1.25035,2.85794 h -1.42898 l 0.17862,-7.144856 c 1.67907,0.459656 1.25036,1.917556 1.25036,3.393806"
           id="path9670" /><path
           style="fill:#01ff01;fill-opacity:1;stroke:none"
           d="m 54.916698,100.10027 -0.35725,0.8931 c -0.51409,-0.0756 -4.85659,-0.53549 -3.15496,1.1587 0.95345,0.94928 2.75126,0.35817 3.48023,1.70904 1.90262,3.52577 -3.7719,2.7365 -5.32667,2.31228 0.34496,-2.15537 3.8206,1.02771 4.12235,-1.25738 0.17351,-1.31391 -2.98258,-1.287 -3.63252,-2.1746 -2.22051,-3.032456 3.25637,-3.334886 4.86882,-2.64114"
           id="path9672" /><path
           style="fill:#01ff01;fill-opacity:1;stroke:none"
           d="m 72.064368,99.742994 v 6.966236 h -1.25036 v -6.966236 h 1.25036"
           id="path9674" /><path
           id="path9676"
           style="fill:#01ff01;fill-opacity:1;stroke:none"
           d="m 138.0333,106.33349 c -2.21452,-0.0262 -1.42898,-3.17447 -1.42898,-4.82278 0,-0.55392 -0.21735,-1.737036 0.27938,-2.128846 0.43144,-0.3403 1.35886,-0.0135 1.86422,-0.0241 2.07015,-0.0435 5.24183,0.989466 3.50669,3.741816 -1.0149,1.60985 -2.90046,0.34241 -3.93491,1.37686 -0.43309,0.43309 -0.28634,1.30107 -0.2864,1.85706 m 0.88282,-5.9624 c -0.41293,5.9e-4 -0.82954,0.0377 -1.18907,0.0377 v 2.67942 c 0.7245,0 1.63324,0.14121 2.3182,-0.13229 1.02627,-0.40977 1.16426,-1.79261 0.17157,-2.33629 -0.36989,-0.20258 -0.83271,-0.24923 -1.3007,-0.24857 z" /><path
           id="path9678"
           style="fill:#01ff01;fill-opacity:1;stroke:none"
           d="m 130.11641,99.743024 2.85793,6.966236 c -1.67462,-0.006 -1.64143,-1.57707 -3.21532,-1.60677 -0.6171,-0.0116 -1.54625,-0.15646 -2.09425,0.18276 -1.00274,0.6207 -0.77876,1.40726 -2.19253,1.42401 l 2.18895,-5.18002 0.93872,-1.738256 1.5165,-0.048 m -1.07173,1.607606 -1.07173,2.5007 h 2.5007 l -1.07173,-2.5007 z" /><path
           style="fill:#01ff01;fill-opacity:1;stroke:none"
           d="m 112.43286,99.564404 1.6076,5.001396 h 0.35724 l 1.60759,-4.822776 h 1.42898 l 1.42897,4.822776 h 0.53587 l 1.42897,-4.822776 h 1.42897 c -0.60529,2.217576 -1.32617,6.964226 -3.92967,6.966236 l -1.42898,-4.64416 c -1.23656,1.07987 -0.88469,3.58817 -2.21816,4.46043 -0.90655,0.59301 -1.40902,-0.37575 -1.67706,-1.06675 -0.70963,-1.82945 -1.41897,-3.79421 -1.82067,-5.715756 l 1.25035,-0.17862"
           id="path9680" /><path
           style="fill:#01ff01;fill-opacity:1;stroke:none"
           d="m 106.89557,100.10027 -0.35724,1.07173 c -0.78235,-0.21347 -1.67727,-0.7201 -2.49726,-0.40259 -0.56867,0.22019 -1.01885,0.84286 -0.47908,1.34876 1.02747,0.963 2.91812,0.3525 3.53122,1.91453 1.10975,2.82736 -3.31527,3.45764 -4.99327,2.30346 -0.39368,-0.27077 -0.69604,-1.05259 0.0138,-1.13967 0.58789,-0.0721 3.77683,1.3057 3.54556,-0.44767 -0.17639,-1.33727 -2.92335,-0.9809 -3.65734,-1.99307 -2.201302,-3.035606 3.19045,-3.548236 4.89363,-2.65548"
           id="path9682" /><path
           style="fill:#01ff01;fill-opacity:1;stroke:none"
           d="m 88.318918,99.743024 c -0.14144,1.119156 -0.83625,4.995806 0.2354,5.710926 0.761172,0.50792 2.449202,0.18358 3.337024,0.18358 v 1.07173 h -5.001404 v -5.0014 l 0.18359,-1.856366 1.24539,-0.10847"
           id="path9684" /><path
           style="fill:#01ff01;fill-opacity:1;stroke:none"
           d="m 78.494758,99.564404 c 0.37918,1.282826 -0.55682,5.122506 0.59264,5.889546 0.76117,0.50792 2.44921,0.18358 3.33703,0.18358 -0.0572,1.74142 -2.0791,1.05897 -3.39381,1.07242 -0.41402,0.004 -1.29041,0.21834 -1.5956,-0.14927 -0.31606,-0.3807 -0.0134,-1.35357 -0.0134,-1.81626 0,-1.58325 0.0451,-3.44371 -0.17725,-5.001396 l 1.25036,-0.17862"
           id="path9686" /><path
           style="fill:#01ff01;fill-opacity:1;stroke:none"
           d="m 61.347078,102.95821 c 1.75913,-1.23916 2.4981,-3.213396 4.82278,-3.215186 l -2.40657,3.036566 2.58519,3.92967 c -1.86143,-0.001 -2.93854,-1.2268 -3.75105,-2.85794 -1.14308,0.81309 -1.25752,1.53276 -1.25035,2.85794 h -1.42898 l 0.17862,-7.144856 c 1.67907,0.459656 1.25036,1.917556 1.25036,3.393806"
           id="path9688" /><path
           style="fill:#01ff01;fill-opacity:1;stroke:none"
           d="m 54.916698,100.10027 -0.35725,0.8931 c -0.51409,-0.0756 -4.85659,-0.53549 -3.15496,1.1587 0.95345,0.94928 2.75126,0.35817 3.48023,1.70904 1.90262,3.52577 -3.7719,2.7365 -5.32667,2.31228 0.34496,-2.15537 3.8206,1.02771 4.12235,-1.25738 0.17351,-1.31391 -2.98258,-1.287 -3.63252,-2.1746 -2.22051,-3.032456 3.25637,-3.334886 4.86882,-2.64114"
           id="path9690" /></g></g></g></svg>
