<?xml version="1.0" encoding="UTF-8" standalone="no"?>
<!-- Created with Inkscape (http://www.inkscape.org/) -->

<svg
   width="72.100044mm"
   height="73.515038mm"
   viewBox="0 0 72.100044 73.515038"
   version="1.1"
   id="svg1"
   inkscape:version="1.2.2 (b0a8486541, 2022-12-01)"
   sodipodi:docname="SkillSwap_Hands_multi-color2.svg"
   xmlns:inkscape="http://www.inkscape.org/namespaces/inkscape"
   xmlns:sodipodi="http://sodipodi.sourceforge.net/DTD/sodipodi-0.dtd"
   xmlns="http://www.w3.org/2000/svg"
   xmlns:svg="http://www.w3.org/2000/svg">
  <sodipodi:namedview
     id="namedview1"
     pagecolor="#000000"
     bordercolor="#000000"
     borderopacity="0.25"
     inkscape:showpageshadow="false"
     inkscape:pageopacity="1"
     inkscape:pagecheckerboard="true"
     inkscape:deskcolor="#d1d1d1"
     inkscape:document-units="mm"
     inkscape:zoom="1.6384748"
     inkscape:cx="95.820823"
     inkscape:cy="330.79545"
     inkscape:window-width="982"
     inkscape:window-height="1708"
     inkscape:window-x="0"
     inkscape:window-y="0"
     inkscape:window-maximized="1"
     inkscape:current-layer="svg1"
     showgrid="false"
     showguides="true"
     showborder="false"
     borderlayer="false"
     shape-rendering="crispEdges">
    <inkscape:grid
       type="xygrid"
       id="grid4424"
       originx="2.3046599"
       originy="4.4651508" />
  </sodipodi:namedview>
  <defs
     id="defs1" />
  <g
     inkscape:label="Layer 1"
     inkscape:groupmode="layer"
     id="layer1"
     transform="translate(-60.92844,-61.483458)"
     style="display:inline">
    <path
       d="m 88.44961,89.267475 v 0.53587 c -3.03231,0.98668 -6.44859,1.6272 -9.28833,3.0855 -1.07891,0.55405 -2.87904,2.36818 -0.71435,2.90756 2.10011,0.52329 5.68733,-2.09816 7.6806,-2.77733 0.8625,-0.29388 2.45514,-1.21022 2.85794,-5.4e-4 -2.24053,0.93282 -4.67181,1.8069 -6.78693,3.00018 -0.89953,0.50748 -1.60793,1.68718 -0.17655,2.074957 2.50786,0.679427 5.71512,-2.557407 8.21383,-2.931677 -0.3129,1.10544 -3.83679,2.832017 -2.89612,4.016511 0.75951,0.956364 2.44157,0.0951 3.25337,-0.309827 2.74697,-1.370144 5.316564,-3.939424 8.395196,-4.516274 3.001454,-0.56239 5.767814,0.96835 8.395204,2.18592 4.6121,2.137294 9.1656,4.382235 13.75387,6.563095 2.33462,1.10967 5.7692,2.26384 6.05453,5.27857 0.27528,2.90854 0.73867,7.7792 -0.76079,10.36006 -1.37391,2.36477 -4.96573,3.56951 -7.25858,4.87295 -4.86084,2.7633 -9.7373,5.50762 -14.64697,8.18091 -2.81162,1.5309 -5.583244,3.41915 -8.931063,3.18473 -2.489657,-0.17435 -4.671087,-1.68616 -6.787617,-2.86691 -3.38824,-1.89019 -6.78938,-3.75714 -10.18143,-5.64271 -4.71125,-2.61887 -9.48238,-5.18262 -14.11112,-7.94343 -1.19154,-0.71069 -4.3607,-2.33156 -2.92879,-4.19223 1.98796,-2.58321 7.05711,-0.68558 9.35917,0.22713 4.88711,1.93763 9.76439,3.91428 14.64698,5.86737 3.02878,1.21155 6.55953,2.85252 9.824187,3.20099 0.878867,0.0938 2.368328,-0.54285 1.792131,-1.66589 -0.623007,-1.21429 -3.346798,-1.18237 -3.346798,-2.68911 0,-1.5453 3.128028,-1.84194 4.233982,-2.11879 3.249748,-0.81349 6.499958,-1.90121 9.645558,-3.04967 1.2647,-0.46174 2.82363,-0.75844 3.92692,-1.55439 1.71247,-1.23544 0.64789,-2.96361 -1.2476,-2.68828 -3.26525,0.47429 -7.58816,3.57593 -10.895917,2.62557 0.803217,-0.92038 2.107857,-1.14626 3.215187,-1.57382 2.02783,-0.783 4.3005,-1.56689 6.07245,-2.85396 1.63096,-1.18466 0.9632,-2.94457 -1.07104,-2.67891 -2.16738,0.28305 -4.40657,1.96541 -6.43038,2.78394 -0.69274,0.28017 -1.680077,0.91193 -2.456461,0.69078 -0.875317,-0.24933 0.164777,-1.12341 0.492587,-1.35276 1.077494,-0.75386 5.174214,-3.34921 2.141664,-4.52825 -1.38586,-0.53882 -2.921761,0.24563 -4.107455,0.88415 -2.556195,1.37656 -5.028645,3.92638 -8.037955,4.14717 -3.06369,0.22477 -5.87494,-1.3402 -8.57384,-2.61 -4.02429,-1.89337 -8.16745,-3.56207 -12.14628,-5.546367 -1.96046,-0.977714 -4.87526,-1.648181 -6.07217,-3.616538 -0.57848,-0.95133 -0.4667,-1.98175 -0.56715,-3.03657 -0.2434,-2.55597 -0.53629,-5.67376 -0.0896,-8.2166 0.36036,-2.05131 2.20195,-3.25316 3.87097,-4.21056 3.2683,-1.8748 6.53315,-3.7519 9.82419,-5.58896 3.64187,-2.03287 6.689465,-3.93629 10.344505,-5.9483 1.86184,-1.02489 4.269515,-2.56396 6.445925,-2.79782 3.413674,-0.36681 6.069309,1.37933 8.93106,2.95098 4.66184,2.56023 9.35763,5.12216 13.93249,7.83317 2.76118,1.63625 5.6558,3.03712 8.39521,4.71405 1.28199,0.78477 2.81457,1.47622 3.27776,3.04744 0.3683,1.24933 -0.58298,1.93387 -1.67016,2.23456 -1.981,0.5479 -3.92439,0.58396 -5.89452,-0.0458 -6.72121,-2.14831 -13.0663,-5.41242 -19.826997,-7.49687 -2.065608,-0.63688 -5.320593,-2.36638 -7.501253,-1.75933 -1.30018,0.36194 -1.22131,1.76135 -0.33864,2.53156 1.19369,1.04161 3.02977,0.79114 4.257014,1.76707 0.707757,0.56283 0.880547,1.47231 -0.009,1.95202 -1.613204,0.86999 -4.093224,0.59556 -5.875074,0.89448 -3.19204,0.5355 -6.35582,1.59159 -9.46695,2.47479 -0.9448,0.26822 -5.36849,1.61062 -3.18873,3.2094 0.95228,0.69846 2.37331,0.0712 3.36736,-0.19763 2.21604,-0.59932 5.39725,-1.72295 7.68073,-1.27737"
       style="display:inline;fill:#00ff00;fill-opacity:0.5;stroke:none"
       id="path4408"
       sodipodi:nodetypes="ccssscsscscscssssscscsscssssssssccssssssssccssccccssssssccssscccscc"
       inkscape:highlight-color="#3b80ee" />
    <path
       d="m 88.156942,84.365389 v 0.535869 c -3.03231,0.98668 -6.44859,1.6272 -9.28833,3.0855 -1.07891,0.55405 -2.87904,2.36818 -0.71435,2.90756 2.10011,0.52329 5.68733,-2.09816 7.6806,-2.77733 0.8625,-0.29388 2.45514,-1.21022 2.85794,-5.4e-4 -2.24053,0.93282 -4.67181,1.8069 -6.78693,3.00018 -0.89953,0.50748 -1.60793,1.68718 -0.17655,2.07496 2.50786,0.67942 5.71512,-2.55741 8.21383,-2.93168 -0.3129,1.10544 -3.83679,2.83202 -2.89612,4.01651 0.75951,0.95637 2.44157,0.0951 3.25337,-0.30983 2.74697,-1.37014 5.316568,-3.93942 8.395218,-4.51627 3.00146,-0.56239 5.76782,0.96835 8.39521,2.18592 4.6121,2.13729 9.1656,4.382242 13.75387,6.56309 2.33462,1.10967 5.7692,2.263842 6.05453,5.278572 0.27528,2.90854 0.73867,7.7792 -0.76079,10.36006 -1.37391,2.36477 -4.96573,3.56951 -7.25858,4.87295 -4.86084,2.7633 -9.7373,5.50762 -14.64697,8.18091 -2.81162,1.5309 -5.58325,3.41915 -8.931093,3.18473 -2.489655,-0.17435 -4.671085,-1.68616 -6.787615,-2.86691 -3.38824,-1.89019 -6.78938,-3.75714 -10.18143,-5.64271 -4.71125,-2.61887 -9.48238,-5.18262 -14.11112,-7.94343 -1.19154,-0.71069 -4.3607,-2.33156 -2.92879,-4.19223 1.98796,-2.58321 7.05711,-0.68558 9.35917,0.22713 4.88711,1.93763 9.76439,3.91428 14.64698,5.86737 3.02878,1.21155 6.55953,2.85252 9.824185,3.20099 0.878873,0.0938 2.368343,-0.54285 1.792143,-1.66589 -0.62301,-1.21429 -3.346808,-1.18237 -3.346808,-2.68911 0,-1.5453 3.128038,-1.84194 4.233998,-2.11879 3.24976,-0.81349 6.49997,-1.90121 9.64557,-3.04967 1.2647,-0.46174 2.82363,-0.75844 3.92692,-1.55439 1.71247,-1.23544 0.64789,-2.96361 -1.2476,-2.68828 -3.26525,0.47429 -7.58816,3.57593 -10.89593,2.62557 0.80322,-0.92038 2.10787,-1.14626 3.2152,-1.57382 2.02783,-0.783 4.3005,-1.56689 6.07245,-2.85396 1.63096,-1.18466 0.9632,-2.94457 -1.07104,-2.67891 -2.16738,0.28305 -4.40657,1.96541 -6.43038,2.78394 -0.69275,0.28017 -1.68009,0.91193 -2.45647,0.69078 -0.87532,-0.24933 0.16478,-1.12341 0.49258,-1.35276 1.0775,-0.75386 5.17423,-3.349212 2.14168,-4.528252 -1.38587,-0.538817 -2.92177,0.24563 -4.10747,0.88415 -2.556213,1.376562 -5.028658,3.926382 -8.037968,4.147172 -3.06369,0.22477 -5.87494,-1.3402 -8.57384,-2.61 -4.02429,-1.893372 -8.16745,-3.562066 -12.14628,-5.546362 -1.96046,-0.97772 -4.87526,-1.64818 -6.07217,-3.61654 -0.57848,-0.95133 -0.4667,-1.98175 -0.56715,-3.03657 -0.2434,-2.55597 -0.53629,-5.673759 -0.0896,-8.216599 0.36036,-2.05131 2.20195,-3.25316 3.87097,-4.21056 3.2683,-1.8748 6.53315,-3.7519 9.82419,-5.58896 3.64187,-2.03287 6.689465,-3.93629 10.344505,-5.9483 1.86184,-1.02489 4.269515,-2.56396 6.445925,-2.79782 3.413678,-0.36681 6.069328,1.37933 8.931088,2.95098 4.66184,2.56023 9.35763,5.12216 13.93249,7.83317 2.76118,1.63625 5.6558,3.03712 8.39521,4.71405 1.28199,0.78477 2.81457,1.47622 3.27776,3.04744 0.3683,1.24933 -0.58298,1.93387 -1.67016,2.23456 -1.981,0.5479 -3.92439,0.58396 -5.89452,-0.0458 -6.72121,-2.14831 -13.0663,-5.41242 -19.82701,-7.49687 -2.06561,-0.63688 -5.320608,-2.36638 -7.501268,-1.75933 -1.30018,0.36194 -1.22131,1.76135 -0.33864,2.53156 1.19369,1.04161 3.029765,0.79114 4.257018,1.76707 0.70776,0.56283 0.88055,1.47231 -0.009,1.95202 -1.613208,0.86999 -4.093228,0.59556 -5.875078,0.89448 -3.19204,0.5355 -6.35582,1.59159 -9.46695,2.47479 -0.9448,0.26822 -5.36849,1.61062 -3.18873,3.209399 0.95228,0.69846 2.37331,0.0712 3.36736,-0.19763 2.21604,-0.59932 5.39725,-1.722949 7.68073,-1.277369"
       style="display:inline;mix-blend-mode:normal;fill:#ff0000;fill-opacity:0.51;stroke:none"
       id="path4410"
       sodipodi:nodetypes="ccssscsscscscssssscscsscssssssssccssssssssccssccccssssssccssscccscc"
       inkscape:label="path4410"
       inkscape:highlight-color="#ff00ee" />
    <path
       d="m 93.996166,85.795415 v 0.53587 c -3.03231,0.98668 -6.44859,1.6272 -9.28833,3.0855 -1.07891,0.55405 -2.87904,2.36818 -0.71435,2.90756 2.10011,0.52329 5.68733,-2.09816 7.6806,-2.77733 0.8625,-0.29388 2.45514,-1.21022 2.85794,-5.4e-4 -2.24053,0.93282 -4.67181,1.8069 -6.78693,3.00018 -0.89953,0.50748 -1.60793,1.68718 -0.17655,2.07496 2.50786,0.679424 5.71512,-2.55741 8.21383,-2.93168 -0.3129,1.10544 -3.83679,2.83202 -2.89612,4.016511 0.75951,0.956367 2.44157,0.0951 3.25337,-0.309827 2.74699,-1.370144 5.316604,-3.939424 8.395274,-4.516274 3.00146,-0.56239 5.76782,0.96835 8.39521,2.18592 4.6121,2.137294 9.1656,4.382248 13.75387,6.563101 2.33462,1.109684 5.7692,2.263854 6.05453,5.278584 0.27528,2.90854 0.73867,7.7792 -0.76079,10.36006 -1.37391,2.36477 -4.96573,3.56951 -7.25858,4.87295 -4.86084,2.7633 -9.7373,5.50762 -14.64697,8.18091 -2.81162,1.5309 -5.58325,3.41914 -8.93111,3.18472 -2.489674,-0.17435 -4.671124,-1.68615 -6.787654,-2.8669 -3.38824,-1.89019 -6.78938,-3.75714 -10.18143,-5.64271 -4.71125,-2.61887 -9.482376,-5.18262 -14.111116,-7.94343 -1.19154,-0.71069 -4.3607,-2.33156 -2.92879,-4.19223 1.98796,-2.58321 7.05711,-0.68558 9.35917,0.22713 4.887106,1.93763 9.764386,3.91428 14.646976,5.86737 3.02878,1.21155 6.55954,2.85252 9.824224,3.20099 0.87887,0.0938 2.36836,-0.54285 1.79215,-1.66589 -0.62301,-1.21429 -3.346834,-1.18237 -3.346834,-2.68911 0,-1.5453 3.128064,-1.84194 4.234034,-2.11879 3.24976,-0.81349 6.49997,-1.90121 9.64557,-3.04967 1.2647,-0.46174 2.82363,-0.75844 3.92692,-1.55439 1.71247,-1.23544 0.64789,-2.96361 -1.2476,-2.68828 -3.26525,0.47429 -7.58816,3.57593 -10.89592,2.62557 0.80322,-0.92038 2.10786,-1.14626 3.21519,-1.57382 2.02783,-0.783 4.3005,-1.56689 6.07245,-2.85396 1.63096,-1.18466 0.9632,-2.94457 -1.07104,-2.67891 -2.16738,0.28305 -4.40657,1.96541 -6.43038,2.78394 -0.69274,0.28017 -1.68008,0.91193 -2.45647,0.69078 -0.87531,-0.24933 0.16478,-1.12341 0.49259,-1.35276 1.0775,-0.75386 5.17422,-3.34921 2.14167,-4.528264 -1.38586,-0.53882 -2.92177,0.24563 -4.10748,0.884154 -2.55623,1.37657 -5.028694,3.92639 -8.038014,4.14718 -3.06369,0.22477 -5.87494,-1.3402 -8.57384,-2.61 -4.02429,-1.89338 -8.167446,-3.562087 -12.146276,-5.546387 -1.96046,-0.977714 -4.87526,-1.648178 -6.07217,-3.616538 -0.57848,-0.95133 -0.4667,-1.98175 -0.56715,-3.03657 -0.2434,-2.55597 -0.53629,-5.67376 -0.0896,-8.2166 0.36036,-2.05131 2.20195,-3.25316 3.87097,-4.21056 3.2683,-1.8748 6.53315,-3.7519 9.824186,-5.58896 3.64187,-2.03287 6.68946,-3.93629 10.3445,-5.9483 1.86184,-1.02489 4.26952,-2.563962 6.44594,-2.797822 3.413704,-0.36681 6.069374,1.379332 8.931134,2.950982 4.66184,2.56023 9.35763,5.12216 13.93249,7.83317 2.76118,1.63625 5.6558,3.03712 8.39521,4.71405 1.28199,0.78477 2.81457,1.47622 3.27776,3.04744 0.3683,1.24933 -0.58298,1.93387 -1.67016,2.23456 -1.981,0.5479 -3.92439,0.58396 -5.89452,-0.0458 -6.72121,-2.14831 -13.0663,-5.41242 -19.827,-7.49687 -2.06563,-0.63688 -5.320655,-2.36638 -7.501324,-1.75933 -1.30019,0.36194 -1.22132,1.76135 -0.33864,2.53156 1.19369,1.04161 3.029784,0.79114 4.257044,1.76707 0.70777,0.56283 0.88056,1.47231 -0.009,1.95202 -1.613225,0.86999 -4.093254,0.59556 -5.875114,0.89448 -3.19204,0.5355 -6.35582,1.59159 -9.46695,2.47479 -0.9448,0.26822 -5.36849,1.61062 -3.18873,3.2094 0.95228,0.69846 2.37331,0.0712 3.36736,-0.19763 2.21604,-0.59932 5.39725,-1.72295 7.68073,-1.27737"
       style="display:inline;fill:#0000ff;fill-opacity:0.5;fill-rule:evenodd;stroke:none"
       id="path4414"
       sodipodi:nodetypes="ccssscsscscscssssscscsscssssssssccssssssssccssccccssssssccssscccscc"
       inkscape:highlight-color="#3b8000" />
  </g>
  <path
     d="m 29.612804,27.259163 v 0.533811 c -3.04118,0.982889 -6.467452,1.620947 -9.315498,3.073644 -1.082066,0.551922 -2.887462,2.359081 -0.71644,2.896389 2.106253,0.521279 5.703965,-2.090099 7.703066,-2.766659 0.865023,-0.292751 2.462321,-1.20557 2.866299,-5.38e-4 -2.247083,0.929236 -4.685475,1.799957 -6.806781,2.988653 -0.902162,0.50553 -1.612634,1.680697 -0.177067,2.066987 2.515196,0.676805 5.731837,-2.547584 8.237855,-2.920416 -0.313815,1.101193 -3.848012,2.821139 -2.904591,4.001074 0.761732,0.952695 2.448712,0.09473 3.262886,-0.30864 2.755005,-1.364871 5.33212,-3.924279 8.419775,-4.498913 3.010239,-0.560229 5.784691,0.964629 8.419766,2.177521 4.62559,2.129074 9.192409,4.365413 13.7941,6.537894 2.341448,1.105406 5.786075,2.255142 6.072239,5.258288 0.276085,2.897365 0.740831,7.74931 -0.763015,10.320254 -1.377929,2.355684 -4.980255,3.555795 -7.279811,4.854227 -4.875058,2.752683 -9.765782,5.486458 -14.689812,8.149477 -2.819844,1.525018 -5.599581,3.406012 -8.957214,3.172493 C 34.28162,72.621029 32.093809,71.115028 29.971089,69.938815 26.572938,68.055887 23.16185,66.19611 19.759878,64.317785 15.034848,61.708978 10.249763,59.155078 5.6074843,56.404876 4.4124591,55.696917 1.2340294,54.082275 2.6701277,52.228754 c 1.9937747,-2.573285 7.0777519,-0.682946 9.3865453,0.226257 4.901404,1.930185 9.79295,3.89924 14.689821,5.844826 3.037639,1.206895 6.578717,2.84156 9.852925,3.188691 0.881441,0.09344 2.375267,-0.540764 1.797382,-1.659489 -0.624832,-1.209625 -3.356599,-1.177827 -3.356599,-2.678778 0,-1.539362 3.137189,-1.834863 4.246384,-2.110649 3.259265,-0.810364 6.518982,-1.893905 9.673783,-3.037952 1.268399,-0.459966 2.831889,-0.755526 3.938406,-1.548418 1.717479,-1.230693 0.649785,-2.952223 -1.251249,-2.677951 -3.274801,0.472468 -7.610355,3.56219 -10.92779,2.615482 0.805569,-0.916844 2.114025,-1.141856 3.224594,-1.567773 2.033761,-0.779991 4.313079,-1.56087 6.090212,-2.842994 1.63573,-1.180109 0.966017,-2.933256 -1.074173,-2.668617 -2.17372,0.281962 -4.419459,1.957858 -6.449189,2.773243 -0.694766,0.279094 -1.684994,0.908426 -2.463655,0.688126 -0.87788,-0.248372 0.165262,-1.119094 0.494031,-1.347562 1.080652,-0.750964 5.189354,-3.336342 2.147934,-4.510852 -1.389913,-0.536749 -2.930316,0.244687 -4.119484,0.880753 -2.563687,1.371271 -5.043368,3.911294 -8.06148,4.131236 -3.072651,0.223906 -5.892124,-1.335051 -8.598918,-2.599972 C 17.873547,41.440266 13.718268,39.777977 9.727801,37.801287 7.7616067,36.827323 4.838281,36.159443 3.63787,34.198646 3.057698,33.250972 3.169805,32.224511 3.0690612,31.173744 c -0.244112,-2.54615 -0.5378587,-5.65196 -0.089862,-8.18503 0.361414,-2.043428 2.2083906,-3.24066 3.8822925,-4.194382 3.2778593,-1.867596 6.5522583,-3.737484 9.8529243,-5.567485 3.652523,-2.025059 6.709032,-3.9211655 10.374763,-5.9254449 1.867286,-1.0209521 4.282003,-2.5541085 6.464779,-2.78707 3.423664,-0.3654006 6.087082,1.3740303 8.957212,2.9396416 4.675476,2.5503923 9.385001,5.1024793 13.973242,7.8030723 2.769257,1.629963 5.672344,3.02545 8.419766,4.695937 1.28574,0.781755 2.822803,1.470548 3.287348,3.035731 0.369377,1.24453 -0.584686,1.92644 -1.675046,2.225974 -1.986794,0.545795 -3.935868,0.581717 -5.911761,-0.04562 C 53.86385,23.029013 47.5002,19.777444 40.719726,17.701003 c -2.071662,-0.634433 -5.336183,-2.357288 -7.523221,-1.75257 -1.303983,0.360549 -1.224882,1.754582 -0.33963,2.521833 1.197181,1.037608 3.038631,0.7881 4.269471,1.760281 0.70983,0.560667 0.883125,1.466653 -0.009,1.944519 -1.617928,0.866648 -4.105201,0.593272 -5.892263,0.891044 -3.201377,0.533442 -6.374411,1.585474 -9.494641,2.465281 -0.947563,0.267189 -5.384193,1.604431 -3.198057,3.197068 0.955066,0.695777 2.380252,0.07093 3.37721,-0.19687 2.222522,-0.597018 5.413037,-1.71633 7.703196,-1.272462"
     style="display:inline;fill:#ffffff;fill-opacity:0.500675;fill-rule:nonzero;stroke:none;stroke-width:0.999536;image-rendering:auto"
     id="path941"
     sodipodi:nodetypes="ccssscsscscscssssscscsscssssssssccssssssssccssccccssssssccssscccscc"
     inkscape:highlight-color="#fbffee"
     sodipodi:insensitive="true" />
</svg>
