<?xml version="1.0" encoding="UTF-8" standalone="no"?>
<!-- Created with Inkscape (http://www.inkscape.org/) -->

<svg
   width="66.260765mm"
   height="68.612961mm"
   viewBox="0 0 66.260765 68.612961"
   version="1.1"
   id="svg1"
   inkscape:version="1.2.2 (b0a8486541, 2022-12-01)"
   sodipodi:docname="SkillSwap_Hands_Single_Blue.svg"
   xmlns:inkscape="http://www.inkscape.org/namespaces/inkscape"
   xmlns:sodipodi="http://sodipodi.sourceforge.net/DTD/sodipodi-0.dtd"
   xmlns="http://www.w3.org/2000/svg"
   xmlns:svg="http://www.w3.org/2000/svg">
  <sodipodi:namedview
     id="namedview1"
     pagecolor="#ffffff"
     bordercolor="#000000"
     borderopacity="0.25"
     inkscape:showpageshadow="2"
     inkscape:pageopacity="0.0"
     inkscape:pagecheckerboard="0"
     inkscape:deskcolor="#d1d1d1"
     inkscape:document-units="mm"
     inkscape:zoom="0.76791308"
     inkscape:cx="261.74837"
     inkscape:cy="391.97145"
     inkscape:window-width="982"
     inkscape:window-height="1708"
     inkscape:window-x="0"
     inkscape:window-y="0"
     inkscape:window-maximized="1"
     inkscape:current-layer="layer1"
     showgrid="false"
     showguides="true" />
  <defs
     id="defs1" />
  <g
     inkscape:label="Layer 1"
     inkscape:groupmode="layer"
     id="layer1"
     transform="translate(-63.233099,-65.948608)">
    <path
       d="m 90.461601,88.830539 v 0.53587 c -3.03231,0.98668 -6.44859,1.6272 -9.28833,3.0855 -1.07891,0.55405 -2.87904,2.36818 -0.71435,2.90756 2.10011,0.52329 5.68733,-2.09816 7.6806,-2.77733 0.8625,-0.29388 2.45514,-1.21022 2.85794,-5.4e-4 -2.24053,0.93282 -4.67181,1.8069 -6.78693,3.00018 -0.89953,0.50748 -1.60793,1.68718 -0.17655,2.07496 2.50786,0.67942 5.71512,-2.55741 8.21383,-2.93168 -0.3129,1.10544 -3.83679,2.83202 -2.89612,4.01651 0.75951,0.95637 2.44157,0.0951 3.25337,-0.30983 2.74697,-1.37014 5.31657,-3.93942 8.395219,-4.51627 3.00146,-0.56239 5.76782,0.96835 8.39521,2.18592 4.6121,2.13729 9.1656,4.382241 13.75387,6.563101 2.33462,1.10967 5.7692,2.26384 6.05453,5.27857 0.27528,2.90854 0.73867,7.7792 -0.76079,10.36006 -1.37391,2.36477 -4.96573,3.56951 -7.25858,4.87295 -4.86084,2.7633 -9.7373,5.50762 -14.64697,8.18091 -2.81162,1.5309 -5.58325,3.41915 -8.931089,3.18473 -2.48966,-0.17435 -4.67109,-1.68616 -6.78762,-2.86691 -3.38824,-1.89019 -6.78938,-3.75714 -10.18143,-5.64271 -4.71125,-2.61887 -9.48238,-5.18262 -14.11112,-7.94343 -1.19154,-0.71069 -4.3607,-2.33156 -2.92879,-4.19223 1.98796,-2.58321 7.05711,-0.68558 9.35917,0.22713 4.88711,1.93763 9.76439,3.91428 14.64698,5.86737 3.02878,1.21155 6.55953,2.85252 9.82419,3.20099 0.87887,0.0938 2.36834,-0.54285 1.79214,-1.66589 -0.62301,-1.21429 -3.34681,-1.18237 -3.34681,-2.68911 0,-1.5453 3.12804,-1.84194 4.233999,-2.11879 3.24976,-0.81349 6.49997,-1.90121 9.64557,-3.04967 1.2647,-0.46174 2.82363,-0.75844 3.92692,-1.55439 1.71247,-1.23544 0.64789,-2.96361 -1.2476,-2.68828 -3.26525,0.47429 -7.58816,3.57593 -10.89592,2.62557 0.80322,-0.92038 2.10786,-1.14626 3.21519,-1.57382 2.02783,-0.783 4.3005,-1.56689 6.07245,-2.85396 1.63096,-1.18466 0.9632,-2.94457 -1.07104,-2.67891 -2.16738,0.28305 -4.40657,1.96541 -6.43038,2.78394 -0.69274,0.28017 -1.68008,0.91193 -2.45647,0.69078 -0.875319,-0.24933 0.16478,-1.12341 0.49259,-1.35276 1.0775,-0.75386 5.17422,-3.34921 2.14167,-4.52825 -1.38586,-0.53882 -2.92177,0.24563 -4.107469,0.88415 -2.55621,1.37656 -5.02866,3.92638 -8.03797,4.14717 -3.06369,0.22477 -5.87494,-1.3402 -8.57384,-2.61 -4.02429,-1.89337 -8.16745,-3.56207 -12.14628,-5.546371 -1.96046,-0.97772 -4.87526,-1.64818 -6.07217,-3.61654 -0.57848,-0.95133 -0.4667,-1.98175 -0.56715,-3.03657 -0.2434,-2.55597 -0.53629,-5.67376 -0.0896,-8.2166 0.36036,-2.05131 2.20195,-3.25316 3.87097,-4.21056 3.2683,-1.8748 6.53315,-3.7519 9.82419,-5.58896 3.64187,-2.03287 6.689465,-3.93629 10.344505,-5.9483 1.86184,-1.02489 4.269515,-2.56396 6.445925,-2.79782 3.41368,-0.36681 6.069329,1.37933 8.931089,2.95098 4.66184,2.56023 9.35763,5.12216 13.93249,7.83317 2.76118,1.63625 5.6558,3.03712 8.39521,4.71405 1.28199,0.78477 2.81457,1.47622 3.27776,3.04744 0.3683,1.24933 -0.58298,1.93387 -1.67016,2.23456 -1.981,0.5479 -3.92439,0.58396 -5.89452,-0.0458 -6.72121,-2.14831 -13.0663,-5.41242 -19.827,-7.49687 -2.065619,-0.63688 -5.320619,-2.36638 -7.501279,-1.75933 -1.30018,0.36194 -1.22131,1.76135 -0.33864,2.53156 1.19369,1.04161 3.02977,0.79114 4.25702,1.76707 0.70776,0.56283 0.88055,1.47231 -0.009,1.95202 -1.61321,0.86999 -4.09323,0.59556 -5.87508,0.89448 -3.19204,0.5355 -6.35582,1.59159 -9.46695,2.47479 -0.9448,0.26822 -5.36849,1.61062 -3.18873,3.2094 0.95228,0.69846 2.37331,0.0712 3.36736,-0.19763 2.21604,-0.59932 5.39725,-1.72295 7.68073,-1.27737"
       style="fill:#010101;fill-opacity:1;stroke:none"
       id="path941"
       sodipodi:nodetypes="ccssscsscscscssssscscsscssssssssccssssssssccssccccssssssccssscccscc" />
    <path
       d="m 90.461601,88.830539 v 0.53587 c -3.03231,0.98668 -6.44859,1.6272 -9.28833,3.0855 -1.07891,0.55405 -2.87904,2.36818 -0.71435,2.90756 2.10011,0.52329 5.68733,-2.09816 7.6806,-2.77733 0.8625,-0.29388 2.45514,-1.21022 2.85794,-5.4e-4 -2.24053,0.93282 -4.67181,1.8069 -6.78693,3.00018 -0.89953,0.50748 -1.60793,1.68718 -0.17655,2.07496 2.50786,0.67942 5.71512,-2.55741 8.21383,-2.93168 -0.3129,1.10544 -3.83679,2.83202 -2.89612,4.01651 0.75951,0.95637 2.44157,0.0951 3.25337,-0.30983 2.74697,-1.37014 5.31657,-3.93942 8.395219,-4.51627 3.00146,-0.56239 5.76782,0.96835 8.39521,2.18592 4.6121,2.13729 9.1656,4.382241 13.75387,6.563101 2.33462,1.10967 5.7692,2.26384 6.05453,5.27857 0.27528,2.90854 0.73867,7.7792 -0.76079,10.36006 -1.37391,2.36477 -4.96573,3.56951 -7.25858,4.87295 -4.86084,2.7633 -9.7373,5.50762 -14.64697,8.18091 -2.81162,1.5309 -5.58325,3.41915 -8.931089,3.18473 -2.48966,-0.17435 -4.67109,-1.68616 -6.78762,-2.86691 -3.38824,-1.89019 -6.78938,-3.75714 -10.18143,-5.64271 -4.71125,-2.61887 -9.48238,-5.18262 -14.11112,-7.94343 -1.19154,-0.71069 -4.3607,-2.33156 -2.92879,-4.19223 1.98796,-2.58321 7.05711,-0.68558 9.35917,0.22713 4.88711,1.93763 9.76439,3.91428 14.64698,5.86737 3.02878,1.21155 6.55953,2.85252 9.82419,3.20099 0.87887,0.0938 2.36834,-0.54285 1.79214,-1.66589 -0.62301,-1.21429 -3.34681,-1.18237 -3.34681,-2.68911 0,-1.5453 3.12804,-1.84194 4.233999,-2.11879 3.24976,-0.81349 6.49997,-1.90121 9.64557,-3.04967 1.2647,-0.46174 2.82363,-0.75844 3.92692,-1.55439 1.71247,-1.23544 0.64789,-2.96361 -1.2476,-2.68828 -3.26525,0.47429 -7.58816,3.57593 -10.89592,2.62557 0.80322,-0.92038 2.10786,-1.14626 3.21519,-1.57382 2.02783,-0.783 4.3005,-1.56689 6.07245,-2.85396 1.63096,-1.18466 0.9632,-2.94457 -1.07104,-2.67891 -2.16738,0.28305 -4.40657,1.96541 -6.43038,2.78394 -0.69274,0.28017 -1.68008,0.91193 -2.45647,0.69078 -0.875319,-0.24933 0.16478,-1.12341 0.49259,-1.35276 1.0775,-0.75386 5.17422,-3.34921 2.14167,-4.52825 -1.38586,-0.53882 -2.92177,0.24563 -4.107469,0.88415 -2.55621,1.37656 -5.02866,3.92638 -8.03797,4.14717 -3.06369,0.22477 -5.87494,-1.3402 -8.57384,-2.61 -4.02429,-1.89337 -8.16745,-3.56207 -12.14628,-5.546371 -1.96046,-0.97772 -4.87526,-1.64818 -6.07217,-3.61654 -0.57848,-0.95133 -0.4667,-1.98175 -0.56715,-3.03657 -0.2434,-2.55597 -0.53629,-5.67376 -0.0896,-8.2166 0.36036,-2.05131 2.20195,-3.25316 3.87097,-4.21056 3.2683,-1.8748 6.53315,-3.7519 9.82419,-5.58896 3.64187,-2.03287 6.689465,-3.93629 10.344505,-5.9483 1.86184,-1.02489 4.269515,-2.56396 6.445925,-2.79782 3.41368,-0.36681 6.069329,1.37933 8.931089,2.95098 4.66184,2.56023 9.35763,5.12216 13.93249,7.83317 2.76118,1.63625 5.6558,3.03712 8.39521,4.71405 1.28199,0.78477 2.81457,1.47622 3.27776,3.04744 0.3683,1.24933 -0.58298,1.93387 -1.67016,2.23456 -1.981,0.5479 -3.92439,0.58396 -5.89452,-0.0458 -6.72121,-2.14831 -13.0663,-5.41242 -19.827,-7.49687 -2.065619,-0.63688 -5.320619,-2.36638 -7.501279,-1.75933 -1.30018,0.36194 -1.22131,1.76135 -0.33864,2.53156 1.19369,1.04161 3.02977,0.79114 4.25702,1.76707 0.70776,0.56283 0.88055,1.47231 -0.009,1.95202 -1.61321,0.86999 -4.09323,0.59556 -5.87508,0.89448 -3.19204,0.5355 -6.35582,1.59159 -9.46695,2.47479 -0.9448,0.26822 -5.36849,1.61062 -3.18873,3.2094 0.95228,0.69846 2.37331,0.0712 3.36736,-0.19763 2.21604,-0.59932 5.39725,-1.72295 7.68073,-1.27737"
       style="fill:#0000ff;fill-opacity:0.5;stroke:none"
       id="path4414"
       sodipodi:nodetypes="ccssscsscscscssssscscsscssssssssccssssssssccssccccssssssccssscccscc" />
  </g>
</svg>
