<?xml version="1.0" encoding="UTF-8" standalone="no"?>
<!-- Created with Inkscape (http://www.inkscape.org/) -->

<svg
   width="7.5021mm"
   height="6.96628mm"
   viewBox="0 0 7.5020999 6.96628"
   version="1.1"
   id="svg5"
   xml:space="preserve"
   inkscape:version="1.2.2 (b0a8486541, 2022-12-01)"
   sodipodi:docname="_Red_A.svg"
   xmlns:inkscape="http://www.inkscape.org/namespaces/inkscape"
   xmlns:sodipodi="http://sodipodi.sourceforge.net/DTD/sodipodi-0.dtd"
   xmlns="http://www.w3.org/2000/svg"
   xmlns:svg="http://www.w3.org/2000/svg"><sodipodi:namedview
     id="namedview7"
     pagecolor="#505050"
     bordercolor="#ffffff"
     borderopacity="1"
     inkscape:showpageshadow="0"
     inkscape:pageopacity="0"
     inkscape:pagecheckerboard="1"
     inkscape:deskcolor="#d1d1d1"
     inkscape:document-units="mm"
     showgrid="false"
     inkscape:lockguides="true"
     inkscape:zoom="1.4134417"
     inkscape:cx="-15.564844"
     inkscape:cy="-420.95829"
     inkscape:window-width="982"
     inkscape:window-height="1708"
     inkscape:window-x="0"
     inkscape:window-y="0"
     inkscape:window-maximized="1"
     inkscape:current-layer="layer1-3" /><defs
     id="defs2" /><g
     inkscape:label="Layer 1"
     inkscape:groupmode="layer"
     id="layer1"
     transform="translate(-130.67556,-481.72926)"><g
       inkscape:label="Layer 1"
       id="layer1-3"
       transform="translate(7.7393453,59.687947)"><path
         id="path5602"
         style="fill:#ff0101;fill-opacity:0.476935;stroke:none"
         d="m 134.0581,429.54709 c -2.21452,-0.0262 -1.42898,-3.17447 -1.42898,-4.82278 0,-0.55392 -0.21735,-1.73704 0.27938,-2.12885 0.43144,-0.3403 1.35886,-0.0135 1.86422,-0.0241 2.07015,-0.0435 5.24183,0.98947 3.50669,3.74182 -1.0149,1.60985 -2.90046,0.34241 -3.93491,1.37686 -0.43309,0.43309 -0.28634,1.30107 -0.2864,1.85706 m 0.88282,-5.9624 c -0.41293,5.9e-4 -0.82954,0.0377 -1.18907,0.0377 v 2.67942 c 0.7245,0 1.63324,0.14121 2.3182,-0.13229 1.02627,-0.40977 1.16426,-1.79261 0.17157,-2.33629 -0.36989,-0.20258 -0.83271,-0.24923 -1.3007,-0.24857 z" /><path
         id="path5600"
         style="fill:#ff0101;fill-opacity:0.476935;stroke:none"
         d="m 127.58038,422.04135 2.85793,6.96624 c -1.67462,-0.006 -1.64143,-1.57707 -3.21532,-1.60677 -0.6171,-0.0116 -1.54625,-0.15646 -2.09425,0.18276 -1.00274,0.6207 -0.77876,1.40726 -2.19253,1.42401 l 2.18895,-5.18002 0.93872,-1.73826 1.5165,-0.048 m -1.07173,1.60761 -1.07173,2.5007 h 2.5007 l -1.07173,-2.5007 z" /><path
         style="display:none;fill:#ff0101;fill-opacity:0.476935;stroke:none"
         d="m 64.119596,145.75295 c 1.75913,-1.23916 2.4981,-3.2134 4.82278,-3.21519 l -2.40657,3.03657 2.58519,3.92967 c -1.86143,-0.001 -2.93854,-1.2268 -3.75105,-2.85794 -1.14308,0.81309 -1.25752,1.53276 -1.25035,2.85794 h -1.42898 l 0.17862,-7.14486 c 1.67907,0.45966 1.25036,1.91756 1.25036,3.39381"
         id="path5590" /></g></g></svg>
