<?xml version="1.0" encoding="UTF-8" standalone="no"?>
<!-- Created with Inkscape (http://www.inkscape.org/) -->

<svg
   width="546.83545"
   height="550.88599"
   viewBox="0 0 144.68355 145.75526"
   version="1.1"
   id="svg1"
   xml:space="preserve"
   sodipodi:docname="SkillSwap_Text.svg"
   inkscape:export-filename="/home/sissy/SkillSwap_final_edit.png"
   inkscape:export-xdpi="96"
   inkscape:export-ydpi="96"
   inkscape:version="1.4.3 (fcd0343856, 2026-01-01)"
   xmlns:inkscape="http://www.inkscape.org/namespaces/inkscape"
   xmlns:sodipodi="http://sodipodi.sourceforge.net/DTD/sodipodi-0.dtd"
   xmlns="http://www.w3.org/2000/svg"
   xmlns:svg="http://www.w3.org/2000/svg"
   xmlns:rdf="http://www.w3.org/1999/02/22-rdf-syntax-ns#"
   xmlns:cc="http://creativecommons.org/ns#"
   xmlns:dc="http://purl.org/dc/elements/1.1/"><sodipodi:namedview
     id="namedview1"
     pagecolor="#ffffff"
     bordercolor="#000000"
     borderopacity="0.25"
     inkscape:showpageshadow="2"
     inkscape:pageopacity="0.0"
     inkscape:pagecheckerboard="0"
     inkscape:deskcolor="#d1d1d1"
     inkscape:zoom="1.3801793"
     inkscape:cx="228.59349"
     inkscape:cy="335.10139"
     inkscape:window-width="1166"
     inkscape:window-height="999"
     inkscape:window-x="26"
     inkscape:window-y="23"
     inkscape:window-maximized="0"
     inkscape:current-layer="svg1" /><title
     id="title8">SKILL_SWAP</title><defs
     id="defs1" /><g
     id="layer1"
     transform="translate(-83.142747,-36.15734)"><g
       id="g31"><g
         id="g30"><g
           id="g29"><g
             id="g28"><g
               id="g27"><g
                 id="g26"
                 transform="translate(-1.3804849,-193.92123)"><path
                   style="fill:#010101;fill-opacity:1;stroke:none"
                   d="M 84.523232,230.07857 V 375.83385 H 229.20678 V 230.07857 H 84.523232 m 30.901508,103.24329 -0.35725,0.8931 c -0.51409,-0.0756 -4.85659,-0.53549 -3.15496,1.1587 0.95345,0.94928 2.75126,0.35817 3.48023,1.70904 1.90262,3.52578 -3.7719,2.73651 -5.32667,2.31229 0.34496,-2.15538 3.8206,1.02771 4.12235,-1.25738 0.17351,-1.31392 -2.98258,-1.28701 -3.63252,-2.17461 -2.22051,-3.03246 3.25637,-3.33489 4.86882,-2.64114 m 6.43038,2.85794 c 1.75913,-1.23916 2.4981,-3.2134 4.82278,-3.21519 l -2.40657,3.03657 2.58519,3.92968 c -1.86143,-10e-4 -2.93854,-1.2268 -3.75105,-2.85795 -1.14308,0.8131 -1.25752,1.53277 -1.25035,2.85795 h -1.42898 l 0.17862,-7.14487 c 1.67907,0.45966 1.25036,1.91756 1.25036,3.39381 m 17.14768,-3.39381 c 0.37918,1.28283 -0.55682,5.12252 0.59264,5.88956 0.76117,0.50792 2.44921,0.18358 3.33703,0.18358 -0.0572,1.74142 -2.0791,1.05897 -3.39381,1.07242 -0.41402,0.004 -1.29041,0.21834 -1.5956,-0.14927 -0.31606,-0.3807 -0.0134,-1.35357 -0.0134,-1.81626 0,-1.58326 0.0451,-3.44372 -0.17725,-5.00141 l 1.25036,-0.17862 m 9.82419,0.17862 c -0.14144,1.11916 -0.83625,4.99582 0.2354,5.71094 0.76117,0.50792 2.4492,0.18358 3.33703,0.18358 v 1.07173 h -5.00141 v -5.00141 l 0.18359,-1.85637 1.24539,-0.10847 m 18.57665,0.35725 -0.35724,1.07173 c -0.78235,-0.21347 -1.67727,-0.7201 -2.49726,-0.40259 -0.56867,0.22019 -1.01885,0.84286 -0.47908,1.34876 1.02747,0.963 2.91812,0.3525 3.53122,1.91453 1.10975,2.82737 -3.31527,3.45765 -4.99327,2.30347 -0.39368,-0.27077 -0.69604,-1.05259 0.0138,-1.13967 0.58789,-0.0721 3.77683,1.3057 3.54556,-0.44767 -0.17639,-1.33728 -2.92335,-0.98091 -3.65734,-1.99308 -2.2013,-3.03561 3.19045,-3.54824 4.89363,-2.65548 m 5.53727,-0.53587 1.6076,5.00141 h 0.35724 l 1.60759,-4.82279 h 1.42898 l 1.42897,4.82279 h 0.53587 l 1.42897,-4.82279 h 1.42897 c -0.60529,2.21758 -1.32617,6.96424 -3.92967,6.96625 l -1.42898,-4.64417 c -1.23656,1.07987 -0.88469,3.58818 -2.21816,4.46044 -0.90655,0.59301 -1.40902,-0.37575 -1.67706,-1.06675 -0.70963,-1.82946 -1.41897,-3.79422 -1.82067,-5.71577 l 1.25035,-0.17862 m 17.68355,0.17862 2.85794,6.96625 c -1.67463,-0.006 -1.64144,-1.57707 -3.21533,-1.60677 -0.6171,-0.0116 -1.54625,-0.15646 -2.09425,0.18276 -1.00274,0.6207 -0.77876,1.40726 -2.19253,1.42401 l 2.18895,-5.18003 0.93872,-1.73826 1.5165,-0.048 m 8.57384,6.96625 c -2.21452,-0.0262 -1.42898,-3.17448 -1.42898,-4.82279 0,-0.55392 -0.21735,-1.73704 0.27938,-2.12885 0.43144,-0.3403 1.35886,-0.0135 1.86422,-0.0241 2.07015,-0.0435 5.24183,0.98947 3.50669,3.74182 -1.0149,1.60986 -2.90046,0.34241 -3.93491,1.37687 -0.43309,0.43309 -0.28634,1.30107 -0.2864,1.85706 m -66.62588,-6.96625 v 6.96625 h -1.25036 v -6.96625 h 1.25036 m 66.62588,1.07173 v 2.67933 c 0.7245,0 1.63367,0.14091 2.31863,-0.13259 1.02627,-0.40977 1.16428,-1.79246 0.17159,-2.33614 -0.69626,-0.38133 -1.72321,-0.2106 -2.49022,-0.2106 m -9.64557,0.53587 -1.07173,2.5007 h 2.5007 l -1.07173,-2.5007 z"
                   id="path8"
                   sodipodi:nodetypes="cccccccsscsscccccccccccsccsscccsccccccccsssssssccccccccccccsscccccscccccsscssccccccccsscccccc" /></g></g></g></g></g></g></g><metadata
     id="metadata8"><rdf:RDF><cc:Work
         rdf:about=""><dc:title>SKILL_SWAP</dc:title><dc:date>MARCH 30, 2026</dc:date><dc:rights><cc:Agent><dc:title>COGS_128_UNIVERSITY_OF_CALIFORNIA_MERCED</dc:title></cc:Agent></dc:rights><dc:publisher><cc:Agent><dc:title>SKILL_SWAP_GROUP</dc:title></cc:Agent></dc:publisher><dc:identifier>FINAL_PROJECT</dc:identifier><dc:language>ENGLISH</dc:language><dc:subject><rdf:Bag><rdf:li>FINAL</rdf:li><rdf:li>GROUP</rdf:li><rdf:li>BARTER</rdf:li><rdf:li>SKILL_SWAP_BADDIE</rdf:li></rdf:Bag></dc:subject><dc:description>D.I.Y. OR DIE</dc:description></cc:Work></rdf:RDF></metadata></svg>
