<?xml version="1.0" encoding="UTF-8" standalone="no"?>
<!-- Created with Inkscape (http://www.inkscape.org/) -->

<svg
   width="546.83545"
   height="550.88599"
   viewBox="0 0 144.68355 145.75526"
   version="1.1"
   id="svg1"
   xml:space="preserve"
   xmlns="http://www.w3.org/2000/svg"
   xmlns:svg="http://www.w3.org/2000/svg"
   xmlns:rdf="http://www.w3.org/1999/02/22-rdf-syntax-ns#"
   xmlns:cc="http://creativecommons.org/ns#"
   xmlns:dc="http://purl.org/dc/elements/1.1/"><title
     id="title8">SKILL_SWAP</title><defs
     id="defs1" /><g
     id="layer1"
     transform="translate(-83.142747,-36.15734)"><g
       id="g31"><g
         id="g30"><g
           id="g29"><g
             id="g28"><g
               id="g27"><g
                 id="g26"
                 transform="translate(-1.3804849,-193.92123)"><path
                   style="fill:#010101;fill-opacity:1;stroke:none"
                   d="M 84.523232,230.07857 V 375.83385 H 229.20678 V 230.07857 H 84.523232 m 66.447258,49.4782 v 0.53587 c -3.03231,0.98668 -6.44859,1.6272 -9.28833,3.0855 -1.07891,0.55405 -2.87904,2.36818 -0.71435,2.90756 2.10011,0.52329 5.68733,-2.09816 7.6806,-2.77733 0.8625,-0.29388 2.45514,-1.21022 2.85794,-5.4e-4 -2.24053,0.93282 -4.67181,1.8069 -6.78693,3.00018 -0.89953,0.50748 -1.60793,1.68718 -0.17655,2.07496 2.50786,0.67942 5.71512,-2.55741 8.21383,-2.93168 -0.3129,1.10544 -3.83679,2.83202 -2.89612,4.01651 0.75951,0.95637 2.44157,0.0951 3.25337,-0.30983 2.74697,-1.37014 5.31657,-3.93942 8.39522,-4.51627 3.00146,-0.56239 5.76782,0.96835 8.39521,2.18592 4.6121,2.13729 9.1656,4.38224 13.75387,6.5631 2.33462,1.10967 5.7692,2.26384 6.05453,5.27857 0.27528,2.90854 0.73867,7.7792 -0.76079,10.36006 -1.37391,2.36477 -4.96573,3.56951 -7.25858,4.87295 -4.86084,2.7633 -9.7373,5.50762 -14.64697,8.18091 -2.81162,1.5309 -5.58325,3.41915 -8.93109,3.18473 -2.48966,-0.17435 -4.67109,-1.68616 -6.78762,-2.86691 -3.38824,-1.89019 -6.78938,-3.75714 -10.18143,-5.64271 -4.71125,-2.61887 -9.48238,-5.18262 -14.11112,-7.94343 -1.19154,-0.71069 -4.3607,-2.33156 -2.92879,-4.19223 1.98796,-2.58321 7.05711,-0.68558 9.35917,0.22713 4.88711,1.93763 9.76439,3.91428 14.64698,5.86737 3.02878,1.21155 6.55953,2.85252 9.82419,3.20099 0.87887,0.0938 2.36834,-0.54285 1.79214,-1.66589 -0.62301,-1.21429 -3.34681,-1.18237 -3.34681,-2.68911 0,-1.5453 3.12804,-1.84194 4.234,-2.11879 3.24976,-0.81349 6.49997,-1.90121 9.64557,-3.04967 1.2647,-0.46174 2.82363,-0.75844 3.92692,-1.55439 1.71247,-1.23544 0.64789,-2.96361 -1.2476,-2.68828 -3.26525,0.47429 -7.58816,3.57593 -10.89592,2.62557 0.80322,-0.92038 2.10786,-1.14626 3.21519,-1.57382 2.02783,-0.783 4.3005,-1.56689 6.07245,-2.85396 1.63096,-1.18466 0.9632,-2.94457 -1.07104,-2.67891 -2.16738,0.28305 -4.40657,1.96541 -6.43038,2.78394 -0.69274,0.28017 -1.68008,0.91193 -2.45647,0.69078 -0.87532,-0.24933 0.16478,-1.12341 0.49259,-1.35276 1.0775,-0.75386 5.17422,-3.34921 2.14167,-4.52825 -1.38586,-0.53882 -2.92177,0.24563 -4.10747,0.88415 -2.55621,1.37656 -5.02866,3.92638 -8.03797,4.14717 -3.06369,0.22477 -5.87494,-1.3402 -8.57384,-2.61 -4.02429,-1.89337 -8.16745,-3.56207 -12.14628,-5.54637 -1.96046,-0.97772 -4.87526,-1.64818 -6.07217,-3.61654 -0.57848,-0.95133 -0.4667,-1.98175 -0.56715,-3.03657 -0.2434,-2.55597 -0.53629,-5.67376 -0.0896,-8.2166 0.36036,-2.05131 2.20195,-3.25316 3.87097,-4.21056 3.2683,-1.8748 6.53315,-3.7519 9.82419,-5.58896 3.64187,-2.03287 7.24088,-4.14037 10.89592,-6.15238 1.86184,-1.02489 3.7181,-2.35988 5.89451,-2.59374 3.41368,-0.36681 6.06933,1.37933 8.93109,2.95098 4.66184,2.56023 9.35763,5.12216 13.93249,7.83317 2.76118,1.63625 5.6558,3.03712 8.39521,4.71405 1.28199,0.78477 2.81457,1.47622 3.27776,3.04744 0.3683,1.24933 -0.58298,1.93387 -1.67016,2.23456 -1.981,0.5479 -3.92439,0.58396 -5.89452,-0.0458 -6.72121,-2.14831 -13.0663,-5.41242 -19.827,-7.49687 -2.06562,-0.63688 -5.32062,-2.36638 -7.50128,-1.75933 -1.30018,0.36194 -1.22131,1.76135 -0.33864,2.53156 1.19369,1.04161 3.02977,0.79114 4.25702,1.76707 0.70776,0.56283 0.88055,1.47231 -0.009,1.95202 -1.61321,0.86999 -4.09323,0.59556 -5.87508,0.89448 -3.19204,0.5355 -6.35582,1.59159 -9.46695,2.47479 -0.9448,0.26822 -5.36849,1.61062 -3.18873,3.2094 0.95228,0.69846 2.37331,0.0712 3.36736,-0.19763 2.21604,-0.59932 5.39725,-1.72295 7.68073,-1.27737 m -35.54571,53.76513 -0.35725,0.8931 c -0.51409,-0.0756 -4.85659,-0.53549 -3.15496,1.1587 0.95345,0.94928 2.75126,0.35817 3.48023,1.70904 1.90262,3.52578 -3.7719,2.73651 -5.32667,2.31229 0.34496,-2.15538 3.8206,1.02771 4.12235,-1.25738 0.17351,-1.31392 -2.98258,-1.28701 -3.63252,-2.17461 -2.22051,-3.03246 3.25637,-3.33489 4.86882,-2.64114 m 6.43038,2.85794 c 1.75913,-1.23916 2.4981,-3.2134 4.82278,-3.21519 l -2.40657,3.03657 2.58519,3.92968 c -1.86143,-10e-4 -2.93854,-1.2268 -3.75105,-2.85795 -1.14308,0.8131 -1.25752,1.53277 -1.25035,2.85795 h -1.42898 l 0.17862,-7.14487 c 1.67907,0.45966 1.25036,1.91756 1.25036,3.39381 m 17.14768,-3.39381 c 0.37918,1.28283 -0.55682,5.12252 0.59264,5.88956 0.76117,0.50792 2.44921,0.18358 3.33703,0.18358 -0.0572,1.74142 -2.0791,1.05897 -3.39381,1.07242 -0.41402,0.004 -1.29041,0.21834 -1.5956,-0.14927 -0.31606,-0.3807 -0.0134,-1.35357 -0.0134,-1.81626 0,-1.58326 0.0451,-3.44372 -0.17725,-5.00141 l 1.25036,-0.17862 m 9.82419,0.17862 c -0.14144,1.11916 -0.83625,4.99582 0.2354,5.71094 0.76117,0.50792 2.4492,0.18358 3.33703,0.18358 v 1.07173 h -5.00141 v -5.00141 l 0.18359,-1.85637 1.24539,-0.10847 m 18.57665,0.35725 -0.35724,1.07173 c -0.78235,-0.21347 -1.67727,-0.7201 -2.49726,-0.40259 -0.56867,0.22019 -1.01885,0.84286 -0.47908,1.34876 1.02747,0.963 2.91812,0.3525 3.53122,1.91453 1.10975,2.82737 -3.31527,3.45765 -4.99327,2.30347 -0.39368,-0.27077 -0.69604,-1.05259 0.0138,-1.13967 0.58789,-0.0721 3.77683,1.3057 3.54556,-0.44767 -0.17639,-1.33728 -2.92335,-0.98091 -3.65734,-1.99308 -2.2013,-3.03561 3.19045,-3.54824 4.89363,-2.65548 m 5.53727,-0.53587 1.6076,5.00141 h 0.35724 l 1.60759,-4.82279 h 1.42898 l 1.42897,4.82279 h 0.53587 l 1.42897,-4.82279 h 1.42897 c -0.60529,2.21758 -1.32617,6.96424 -3.92967,6.96625 l -1.42898,-4.64417 c -1.23656,1.07987 -0.88469,3.58818 -2.21816,4.46044 -0.90655,0.59301 -1.40902,-0.37575 -1.67706,-1.06675 -0.70963,-1.82946 -1.41897,-3.79422 -1.82067,-5.71577 l 1.25035,-0.17862 m 17.68355,0.17862 2.85794,6.96625 c -1.67463,-0.006 -1.64144,-1.57707 -3.21533,-1.60677 -0.6171,-0.0116 -1.54625,-0.15646 -2.09425,0.18276 -1.00274,0.6207 -0.77876,1.40726 -2.19253,1.42401 l 2.18895,-5.18003 0.93872,-1.73826 1.5165,-0.048 m 8.57384,6.96625 c -2.21452,-0.0262 -1.42898,-3.17448 -1.42898,-4.82279 0,-0.55392 -0.21735,-1.73704 0.27938,-2.12885 0.43144,-0.3403 1.35886,-0.0135 1.86422,-0.0241 2.07015,-0.0435 5.24183,0.98947 3.50669,3.74182 -1.0149,1.60986 -2.90046,0.34241 -3.93491,1.37687 -0.43309,0.43309 -0.28634,1.30107 -0.2864,1.85706 m -66.62588,-6.96625 v 6.96625 h -1.25036 v -6.96625 h 1.25036 m 66.62588,1.07173 v 2.67933 c 0.7245,0 1.63367,0.14091 2.31863,-0.13259 1.02627,-0.40977 1.16428,-1.79246 0.17159,-2.33614 -0.69626,-0.38133 -1.72321,-0.2106 -2.49022,-0.2106 m -9.64557,0.53587 -1.07173,2.5007 h 2.5007 l -1.07173,-2.5007 z"
                   id="path8" /></g></g></g></g></g></g></g><metadata
     id="metadata8"><rdf:RDF><cc:Work
         rdf:about=""><dc:title>SKILL_SWAP</dc:title><dc:date>MARCH 30, 2026</dc:date><dc:rights><cc:Agent><dc:title>COGS_128_UNIVERSITY_OF_CALIFORNIA_MERCED</dc:title></cc:Agent></dc:rights><dc:publisher><cc:Agent><dc:title>SKILL_SWAP_GROUP</dc:title></cc:Agent></dc:publisher><dc:identifier>FINAL_PROJECT</dc:identifier><dc:language>ENGLISH</dc:language><dc:subject><rdf:Bag><rdf:li>FINAL</rdf:li><rdf:li>GROUP</rdf:li><rdf:li>BARTER</rdf:li><rdf:li>SKILL_SWAP_BADDIE</rdf:li></rdf:Bag></dc:subject><dc:description>D.I.Y. OR DIE</dc:description></cc:Work></rdf:RDF></metadata></svg>
